%TF.GenerationSoftware,KiCad,Pcbnew,(5.1.8)-1*%
%TF.CreationDate,2020-12-12T02:16:41-05:00*%
%TF.ProjectId,experimental-pcb,65787065-7269-46d6-956e-74616c2d7063,rev?*%
%TF.SameCoordinates,Original*%
%TF.FileFunction,Copper,L2,Bot*%
%TF.FilePolarity,Positive*%
%FSLAX46Y46*%
G04 Gerber Fmt 4.6, Leading zero omitted, Abs format (unit mm)*
G04 Created by KiCad (PCBNEW (5.1.8)-1) date 2020-12-12 02:16:41*
%MOMM*%
%LPD*%
G01*
G04 APERTURE LIST*
%TA.AperFunction,SMDPad,CuDef*%
%ADD10R,1.400000X1.200000*%
%TD*%
%TA.AperFunction,ComponentPad*%
%ADD11O,1.700000X2.700000*%
%TD*%
%TA.AperFunction,SMDPad,CuDef*%
%ADD12R,0.500000X2.250000*%
%TD*%
%TA.AperFunction,SMDPad,CuDef*%
%ADD13R,1.800000X1.100000*%
%TD*%
%TA.AperFunction,ComponentPad*%
%ADD14R,1.905000X1.905000*%
%TD*%
%TA.AperFunction,ComponentPad*%
%ADD15C,1.905000*%
%TD*%
%TA.AperFunction,ComponentPad*%
%ADD16C,2.250000*%
%TD*%
%TA.AperFunction,SMDPad,CuDef*%
%ADD17R,1.200000X0.900000*%
%TD*%
%TA.AperFunction,SMDPad,CuDef*%
%ADD18R,1.500000X0.550000*%
%TD*%
%TA.AperFunction,SMDPad,CuDef*%
%ADD19R,0.550000X1.500000*%
%TD*%
%TA.AperFunction,ViaPad*%
%ADD20C,0.800000*%
%TD*%
%TA.AperFunction,Conductor*%
%ADD21C,0.250000*%
%TD*%
G04 APERTURE END LIST*
D10*
%TO.P,Y1,1*%
%TO.N,Net-(C4-Pad1)*%
X139446000Y-17321000D03*
%TO.P,Y1,2*%
%TO.N,GND*%
X137246000Y-17321000D03*
%TO.P,Y1,3*%
%TO.N,Net-(C5-Pad1)*%
X137246000Y-15621000D03*
%TO.P,Y1,4*%
%TO.N,GND*%
X139446000Y-15621000D03*
%TD*%
D11*
%TO.P,USB1,6*%
%TO.N,Net-(USB1-Pad6)*%
X116492000Y-15748000D03*
X123792000Y-15748000D03*
X123792000Y-20248000D03*
X116492000Y-20248000D03*
D12*
%TO.P,USB1,5*%
%TO.N,VCC*%
X118542000Y-20248000D03*
%TO.P,USB1,4*%
%TO.N,D-*%
X119342000Y-20248000D03*
%TO.P,USB1,3*%
%TO.N,D+*%
X120142000Y-20248000D03*
%TO.P,USB1,2*%
%TO.N,Net-(USB1-Pad2)*%
X120942000Y-20248000D03*
%TO.P,USB1,1*%
%TO.N,GND*%
X121742000Y-20248000D03*
%TD*%
D13*
%TO.P,SW1,4*%
%TO.N,N/C*%
X116661000Y-30027000D03*
%TO.P,SW1,3*%
X122861000Y-33727000D03*
%TO.P,SW1,2*%
%TO.N,Net-(R3-Pad2)*%
X116661000Y-33727000D03*
%TO.P,SW1,1*%
%TO.N,GND*%
X122861000Y-30027000D03*
%TD*%
%TO.P,R4,1*%
%TO.N,GND*%
%TA.AperFunction,SMDPad,CuDef*%
G36*
G01*
X146869999Y-28189500D02*
X147770001Y-28189500D01*
G75*
G02*
X148020000Y-28439499I0J-249999D01*
G01*
X148020000Y-28964501D01*
G75*
G02*
X147770001Y-29214500I-249999J0D01*
G01*
X146869999Y-29214500D01*
G75*
G02*
X146620000Y-28964501I0J249999D01*
G01*
X146620000Y-28439499D01*
G75*
G02*
X146869999Y-28189500I249999J0D01*
G01*
G37*
%TD.AperFunction*%
%TO.P,R4,2*%
%TO.N,Net-(R4-Pad2)*%
%TA.AperFunction,SMDPad,CuDef*%
G36*
G01*
X146869999Y-30014500D02*
X147770001Y-30014500D01*
G75*
G02*
X148020000Y-30264499I0J-249999D01*
G01*
X148020000Y-30789501D01*
G75*
G02*
X147770001Y-31039500I-249999J0D01*
G01*
X146869999Y-31039500D01*
G75*
G02*
X146620000Y-30789501I0J249999D01*
G01*
X146620000Y-30264499D01*
G75*
G02*
X146869999Y-30014500I249999J0D01*
G01*
G37*
%TD.AperFunction*%
%TD*%
%TO.P,R3,1*%
%TO.N,+5V*%
%TA.AperFunction,SMDPad,CuDef*%
G36*
G01*
X127577001Y-21768500D02*
X126676999Y-21768500D01*
G75*
G02*
X126427000Y-21518501I0J249999D01*
G01*
X126427000Y-20993499D01*
G75*
G02*
X126676999Y-20743500I249999J0D01*
G01*
X127577001Y-20743500D01*
G75*
G02*
X127827000Y-20993499I0J-249999D01*
G01*
X127827000Y-21518501D01*
G75*
G02*
X127577001Y-21768500I-249999J0D01*
G01*
G37*
%TD.AperFunction*%
%TO.P,R3,2*%
%TO.N,Net-(R3-Pad2)*%
%TA.AperFunction,SMDPad,CuDef*%
G36*
G01*
X127577001Y-19943500D02*
X126676999Y-19943500D01*
G75*
G02*
X126427000Y-19693501I0J249999D01*
G01*
X126427000Y-19168499D01*
G75*
G02*
X126676999Y-18918500I249999J0D01*
G01*
X127577001Y-18918500D01*
G75*
G02*
X127827000Y-19168499I0J-249999D01*
G01*
X127827000Y-19693501D01*
G75*
G02*
X127577001Y-19943500I-249999J0D01*
G01*
G37*
%TD.AperFunction*%
%TD*%
%TO.P,R2,2*%
%TO.N,D-*%
%TA.AperFunction,SMDPad,CuDef*%
G36*
G01*
X119449001Y-24087500D02*
X118548999Y-24087500D01*
G75*
G02*
X118299000Y-23837501I0J249999D01*
G01*
X118299000Y-23312499D01*
G75*
G02*
X118548999Y-23062500I249999J0D01*
G01*
X119449001Y-23062500D01*
G75*
G02*
X119699000Y-23312499I0J-249999D01*
G01*
X119699000Y-23837501D01*
G75*
G02*
X119449001Y-24087500I-249999J0D01*
G01*
G37*
%TD.AperFunction*%
%TO.P,R2,1*%
%TO.N,Net-(R2-Pad1)*%
%TA.AperFunction,SMDPad,CuDef*%
G36*
G01*
X119449001Y-25912500D02*
X118548999Y-25912500D01*
G75*
G02*
X118299000Y-25662501I0J249999D01*
G01*
X118299000Y-25137499D01*
G75*
G02*
X118548999Y-24887500I249999J0D01*
G01*
X119449001Y-24887500D01*
G75*
G02*
X119699000Y-25137499I0J-249999D01*
G01*
X119699000Y-25662501D01*
G75*
G02*
X119449001Y-25912500I-249999J0D01*
G01*
G37*
%TD.AperFunction*%
%TD*%
%TO.P,R1,2*%
%TO.N,D+*%
%TA.AperFunction,SMDPad,CuDef*%
G36*
G01*
X122116001Y-24087500D02*
X121215999Y-24087500D01*
G75*
G02*
X120966000Y-23837501I0J249999D01*
G01*
X120966000Y-23312499D01*
G75*
G02*
X121215999Y-23062500I249999J0D01*
G01*
X122116001Y-23062500D01*
G75*
G02*
X122366000Y-23312499I0J-249999D01*
G01*
X122366000Y-23837501D01*
G75*
G02*
X122116001Y-24087500I-249999J0D01*
G01*
G37*
%TD.AperFunction*%
%TO.P,R1,1*%
%TO.N,Net-(R1-Pad1)*%
%TA.AperFunction,SMDPad,CuDef*%
G36*
G01*
X122116001Y-25912500D02*
X121215999Y-25912500D01*
G75*
G02*
X120966000Y-25662501I0J249999D01*
G01*
X120966000Y-25137499D01*
G75*
G02*
X121215999Y-24887500I249999J0D01*
G01*
X122116001Y-24887500D01*
G75*
G02*
X122366000Y-25137499I0J-249999D01*
G01*
X122366000Y-25662501D01*
G75*
G02*
X122116001Y-25912500I-249999J0D01*
G01*
G37*
%TD.AperFunction*%
%TD*%
D14*
%TO.P,MX2,4*%
%TO.N,N/C*%
X144272000Y-52736000D03*
D15*
%TO.P,MX2,3*%
X141732000Y-52736000D03*
D16*
%TO.P,MX2,1*%
%TO.N,COL1*%
X140502000Y-43656000D03*
%TA.AperFunction,ComponentPad*%
G36*
G01*
X138440688Y-45953350D02*
X138440683Y-45953345D01*
G75*
G02*
X138354655Y-44364683I751317J837345D01*
G01*
X139664657Y-42904683D01*
G75*
G02*
X141253319Y-42818655I837345J-751317D01*
G01*
X141253319Y-42818655D01*
G75*
G02*
X141339347Y-44407317I-751317J-837345D01*
G01*
X140029345Y-45867317D01*
G75*
G02*
X138440683Y-45953345I-837345J751317D01*
G01*
G37*
%TD.AperFunction*%
%TO.P,MX2,2*%
%TO.N,Net-(D2-Pad2)*%
X145542000Y-42576000D03*
%TA.AperFunction,ComponentPad*%
G36*
G01*
X145425483Y-44278395D02*
X145424597Y-44278334D01*
G75*
G02*
X144379666Y-43078597I77403J1122334D01*
G01*
X144419666Y-42498597D01*
G75*
G02*
X145619403Y-41453666I1122334J-77403D01*
G01*
X145619403Y-41453666D01*
G75*
G02*
X146664334Y-42653403I-77403J-1122334D01*
G01*
X146624334Y-43233403D01*
G75*
G02*
X145424597Y-44278334I-1122334J77403D01*
G01*
G37*
%TD.AperFunction*%
%TD*%
D14*
%TO.P,MX1,4*%
%TO.N,N/C*%
X125155000Y-52736000D03*
D15*
%TO.P,MX1,3*%
X122615000Y-52736000D03*
D16*
%TO.P,MX1,1*%
%TO.N,COL0*%
X121385000Y-43656000D03*
%TA.AperFunction,ComponentPad*%
G36*
G01*
X119323688Y-45953350D02*
X119323683Y-45953345D01*
G75*
G02*
X119237655Y-44364683I751317J837345D01*
G01*
X120547657Y-42904683D01*
G75*
G02*
X122136319Y-42818655I837345J-751317D01*
G01*
X122136319Y-42818655D01*
G75*
G02*
X122222347Y-44407317I-751317J-837345D01*
G01*
X120912345Y-45867317D01*
G75*
G02*
X119323683Y-45953345I-837345J751317D01*
G01*
G37*
%TD.AperFunction*%
%TO.P,MX1,2*%
%TO.N,Net-(D1-Pad2)*%
X126425000Y-42576000D03*
%TA.AperFunction,ComponentPad*%
G36*
G01*
X126308483Y-44278395D02*
X126307597Y-44278334D01*
G75*
G02*
X125262666Y-43078597I77403J1122334D01*
G01*
X125302666Y-42498597D01*
G75*
G02*
X126502403Y-41453666I1122334J-77403D01*
G01*
X126502403Y-41453666D01*
G75*
G02*
X127547334Y-42653403I-77403J-1122334D01*
G01*
X127507334Y-43233403D01*
G75*
G02*
X126307597Y-44278334I-1122334J77403D01*
G01*
G37*
%TD.AperFunction*%
%TD*%
%TO.P,F1,2*%
%TO.N,VCC*%
%TA.AperFunction,SMDPad,CuDef*%
G36*
G01*
X116957000Y-24882000D02*
X115707000Y-24882000D01*
G75*
G02*
X115457000Y-24632000I0J250000D01*
G01*
X115457000Y-23882000D01*
G75*
G02*
X115707000Y-23632000I250000J0D01*
G01*
X116957000Y-23632000D01*
G75*
G02*
X117207000Y-23882000I0J-250000D01*
G01*
X117207000Y-24632000D01*
G75*
G02*
X116957000Y-24882000I-250000J0D01*
G01*
G37*
%TD.AperFunction*%
%TO.P,F1,1*%
%TO.N,+5V*%
%TA.AperFunction,SMDPad,CuDef*%
G36*
G01*
X116957000Y-27682000D02*
X115707000Y-27682000D01*
G75*
G02*
X115457000Y-27432000I0J250000D01*
G01*
X115457000Y-26682000D01*
G75*
G02*
X115707000Y-26432000I250000J0D01*
G01*
X116957000Y-26432000D01*
G75*
G02*
X117207000Y-26682000I0J-250000D01*
G01*
X117207000Y-27432000D01*
G75*
G02*
X116957000Y-27682000I-250000J0D01*
G01*
G37*
%TD.AperFunction*%
%TD*%
D17*
%TO.P,D2,2*%
%TO.N,Net-(D2-Pad2)*%
X151003000Y-43943000D03*
%TO.P,D2,1*%
%TO.N,ROW0*%
X151003000Y-47243000D03*
%TD*%
%TO.P,D1,2*%
%TO.N,Net-(D1-Pad2)*%
X131953000Y-43943000D03*
%TO.P,D1,1*%
%TO.N,ROW0*%
X131953000Y-47243000D03*
%TD*%
%TO.P,C7,1*%
%TO.N,Net-(C7-Pad1)*%
%TA.AperFunction,SMDPad,CuDef*%
G36*
G01*
X129192000Y-26043000D02*
X130142000Y-26043000D01*
G75*
G02*
X130392000Y-26293000I0J-250000D01*
G01*
X130392000Y-26793000D01*
G75*
G02*
X130142000Y-27043000I-250000J0D01*
G01*
X129192000Y-27043000D01*
G75*
G02*
X128942000Y-26793000I0J250000D01*
G01*
X128942000Y-26293000D01*
G75*
G02*
X129192000Y-26043000I250000J0D01*
G01*
G37*
%TD.AperFunction*%
%TO.P,C7,2*%
%TO.N,GND*%
%TA.AperFunction,SMDPad,CuDef*%
G36*
G01*
X129192000Y-27943000D02*
X130142000Y-27943000D01*
G75*
G02*
X130392000Y-28193000I0J-250000D01*
G01*
X130392000Y-28693000D01*
G75*
G02*
X130142000Y-28943000I-250000J0D01*
G01*
X129192000Y-28943000D01*
G75*
G02*
X128942000Y-28693000I0J250000D01*
G01*
X128942000Y-28193000D01*
G75*
G02*
X129192000Y-27943000I250000J0D01*
G01*
G37*
%TD.AperFunction*%
%TD*%
%TO.P,C6,1*%
%TO.N,+5V*%
%TA.AperFunction,SMDPad,CuDef*%
G36*
G01*
X133744000Y-35654000D02*
X133744000Y-34704000D01*
G75*
G02*
X133994000Y-34454000I250000J0D01*
G01*
X134494000Y-34454000D01*
G75*
G02*
X134744000Y-34704000I0J-250000D01*
G01*
X134744000Y-35654000D01*
G75*
G02*
X134494000Y-35904000I-250000J0D01*
G01*
X133994000Y-35904000D01*
G75*
G02*
X133744000Y-35654000I0J250000D01*
G01*
G37*
%TD.AperFunction*%
%TO.P,C6,2*%
%TO.N,GND*%
%TA.AperFunction,SMDPad,CuDef*%
G36*
G01*
X135644000Y-35654000D02*
X135644000Y-34704000D01*
G75*
G02*
X135894000Y-34454000I250000J0D01*
G01*
X136394000Y-34454000D01*
G75*
G02*
X136644000Y-34704000I0J-250000D01*
G01*
X136644000Y-35654000D01*
G75*
G02*
X136394000Y-35904000I-250000J0D01*
G01*
X135894000Y-35904000D01*
G75*
G02*
X135644000Y-35654000I0J250000D01*
G01*
G37*
%TD.AperFunction*%
%TD*%
%TO.P,C5,1*%
%TO.N,Net-(C5-Pad1)*%
%TA.AperFunction,SMDPad,CuDef*%
G36*
G01*
X134272000Y-14999000D02*
X135222000Y-14999000D01*
G75*
G02*
X135472000Y-15249000I0J-250000D01*
G01*
X135472000Y-15749000D01*
G75*
G02*
X135222000Y-15999000I-250000J0D01*
G01*
X134272000Y-15999000D01*
G75*
G02*
X134022000Y-15749000I0J250000D01*
G01*
X134022000Y-15249000D01*
G75*
G02*
X134272000Y-14999000I250000J0D01*
G01*
G37*
%TD.AperFunction*%
%TO.P,C5,2*%
%TO.N,GND*%
%TA.AperFunction,SMDPad,CuDef*%
G36*
G01*
X134272000Y-16899000D02*
X135222000Y-16899000D01*
G75*
G02*
X135472000Y-17149000I0J-250000D01*
G01*
X135472000Y-17649000D01*
G75*
G02*
X135222000Y-17899000I-250000J0D01*
G01*
X134272000Y-17899000D01*
G75*
G02*
X134022000Y-17649000I0J250000D01*
G01*
X134022000Y-17149000D01*
G75*
G02*
X134272000Y-16899000I250000J0D01*
G01*
G37*
%TD.AperFunction*%
%TD*%
%TO.P,C4,1*%
%TO.N,Net-(C4-Pad1)*%
%TA.AperFunction,SMDPad,CuDef*%
G36*
G01*
X142334000Y-17894000D02*
X141384000Y-17894000D01*
G75*
G02*
X141134000Y-17644000I0J250000D01*
G01*
X141134000Y-17144000D01*
G75*
G02*
X141384000Y-16894000I250000J0D01*
G01*
X142334000Y-16894000D01*
G75*
G02*
X142584000Y-17144000I0J-250000D01*
G01*
X142584000Y-17644000D01*
G75*
G02*
X142334000Y-17894000I-250000J0D01*
G01*
G37*
%TD.AperFunction*%
%TO.P,C4,2*%
%TO.N,GND*%
%TA.AperFunction,SMDPad,CuDef*%
G36*
G01*
X142334000Y-15994000D02*
X141384000Y-15994000D01*
G75*
G02*
X141134000Y-15744000I0J250000D01*
G01*
X141134000Y-15244000D01*
G75*
G02*
X141384000Y-14994000I250000J0D01*
G01*
X142334000Y-14994000D01*
G75*
G02*
X142584000Y-15244000I0J-250000D01*
G01*
X142584000Y-15744000D01*
G75*
G02*
X142334000Y-15994000I-250000J0D01*
G01*
G37*
%TD.AperFunction*%
%TD*%
%TO.P,C3,1*%
%TO.N,+5V*%
%TA.AperFunction,SMDPad,CuDef*%
G36*
G01*
X147795000Y-24818000D02*
X146845000Y-24818000D01*
G75*
G02*
X146595000Y-24568000I0J250000D01*
G01*
X146595000Y-24068000D01*
G75*
G02*
X146845000Y-23818000I250000J0D01*
G01*
X147795000Y-23818000D01*
G75*
G02*
X148045000Y-24068000I0J-250000D01*
G01*
X148045000Y-24568000D01*
G75*
G02*
X147795000Y-24818000I-250000J0D01*
G01*
G37*
%TD.AperFunction*%
%TO.P,C3,2*%
%TO.N,GND*%
%TA.AperFunction,SMDPad,CuDef*%
G36*
G01*
X147795000Y-22918000D02*
X146845000Y-22918000D01*
G75*
G02*
X146595000Y-22668000I0J250000D01*
G01*
X146595000Y-22168000D01*
G75*
G02*
X146845000Y-21918000I250000J0D01*
G01*
X147795000Y-21918000D01*
G75*
G02*
X148045000Y-22168000I0J-250000D01*
G01*
X148045000Y-22668000D01*
G75*
G02*
X147795000Y-22918000I-250000J0D01*
G01*
G37*
%TD.AperFunction*%
%TD*%
%TO.P,C2,1*%
%TO.N,+5V*%
%TA.AperFunction,SMDPad,CuDef*%
G36*
G01*
X144071000Y-34704000D02*
X144071000Y-35654000D01*
G75*
G02*
X143821000Y-35904000I-250000J0D01*
G01*
X143321000Y-35904000D01*
G75*
G02*
X143071000Y-35654000I0J250000D01*
G01*
X143071000Y-34704000D01*
G75*
G02*
X143321000Y-34454000I250000J0D01*
G01*
X143821000Y-34454000D01*
G75*
G02*
X144071000Y-34704000I0J-250000D01*
G01*
G37*
%TD.AperFunction*%
%TO.P,C2,2*%
%TO.N,GND*%
%TA.AperFunction,SMDPad,CuDef*%
G36*
G01*
X142171000Y-34704000D02*
X142171000Y-35654000D01*
G75*
G02*
X141921000Y-35904000I-250000J0D01*
G01*
X141421000Y-35904000D01*
G75*
G02*
X141171000Y-35654000I0J250000D01*
G01*
X141171000Y-34704000D01*
G75*
G02*
X141421000Y-34454000I250000J0D01*
G01*
X141921000Y-34454000D01*
G75*
G02*
X142171000Y-34704000I0J-250000D01*
G01*
G37*
%TD.AperFunction*%
%TD*%
%TO.P,C1,1*%
%TO.N,+5V*%
%TA.AperFunction,SMDPad,CuDef*%
G36*
G01*
X131031000Y-21770000D02*
X130081000Y-21770000D01*
G75*
G02*
X129831000Y-21520000I0J250000D01*
G01*
X129831000Y-21020000D01*
G75*
G02*
X130081000Y-20770000I250000J0D01*
G01*
X131031000Y-20770000D01*
G75*
G02*
X131281000Y-21020000I0J-250000D01*
G01*
X131281000Y-21520000D01*
G75*
G02*
X131031000Y-21770000I-250000J0D01*
G01*
G37*
%TD.AperFunction*%
%TO.P,C1,2*%
%TO.N,GND*%
%TA.AperFunction,SMDPad,CuDef*%
G36*
G01*
X131031000Y-19870000D02*
X130081000Y-19870000D01*
G75*
G02*
X129831000Y-19620000I0J250000D01*
G01*
X129831000Y-19120000D01*
G75*
G02*
X130081000Y-18870000I250000J0D01*
G01*
X131031000Y-18870000D01*
G75*
G02*
X131281000Y-19120000I0J-250000D01*
G01*
X131281000Y-19620000D01*
G75*
G02*
X131031000Y-19870000I-250000J0D01*
G01*
G37*
%TD.AperFunction*%
%TD*%
D18*
%TO.P,U1,1*%
%TO.N,Net-(U1-Pad1)*%
X132984000Y-30543000D03*
%TO.P,U1,2*%
%TO.N,+5V*%
X132984000Y-29743000D03*
%TO.P,U1,3*%
%TO.N,Net-(R2-Pad1)*%
X132984000Y-28943000D03*
%TO.P,U1,4*%
%TO.N,Net-(R1-Pad1)*%
X132984000Y-28143000D03*
%TO.P,U1,5*%
%TO.N,GND*%
X132984000Y-27343000D03*
%TO.P,U1,6*%
%TO.N,Net-(C7-Pad1)*%
X132984000Y-26543000D03*
%TO.P,U1,7*%
%TO.N,+5V*%
X132984000Y-25743000D03*
%TO.P,U1,8*%
%TO.N,Net-(U1-Pad8)*%
X132984000Y-24943000D03*
%TO.P,U1,9*%
%TO.N,Net-(U1-Pad9)*%
X132984000Y-24143000D03*
%TO.P,U1,10*%
%TO.N,Net-(U1-Pad10)*%
X132984000Y-23343000D03*
%TO.P,U1,11*%
%TO.N,Net-(U1-Pad11)*%
X132984000Y-22543000D03*
D19*
%TO.P,U1,12*%
%TO.N,Net-(U1-Pad12)*%
X134684000Y-20843000D03*
%TO.P,U1,13*%
%TO.N,Net-(R3-Pad2)*%
X135484000Y-20843000D03*
%TO.P,U1,14*%
%TO.N,+5V*%
X136284000Y-20843000D03*
%TO.P,U1,15*%
%TO.N,GND*%
X137084000Y-20843000D03*
%TO.P,U1,16*%
%TO.N,Net-(C5-Pad1)*%
X137884000Y-20843000D03*
%TO.P,U1,17*%
%TO.N,Net-(C4-Pad1)*%
X138684000Y-20843000D03*
%TO.P,U1,18*%
%TO.N,Net-(U1-Pad18)*%
X139484000Y-20843000D03*
%TO.P,U1,19*%
%TO.N,Net-(U1-Pad19)*%
X140284000Y-20843000D03*
%TO.P,U1,20*%
%TO.N,Net-(U1-Pad20)*%
X141084000Y-20843000D03*
%TO.P,U1,21*%
%TO.N,Net-(U1-Pad21)*%
X141884000Y-20843000D03*
%TO.P,U1,22*%
%TO.N,Net-(U1-Pad22)*%
X142684000Y-20843000D03*
D18*
%TO.P,U1,23*%
%TO.N,GND*%
X144384000Y-22543000D03*
%TO.P,U1,24*%
%TO.N,+5V*%
X144384000Y-23343000D03*
%TO.P,U1,25*%
%TO.N,ROW0*%
X144384000Y-24143000D03*
%TO.P,U1,26*%
%TO.N,COL1*%
X144384000Y-24943000D03*
%TO.P,U1,27*%
%TO.N,COL0*%
X144384000Y-25743000D03*
%TO.P,U1,28*%
%TO.N,Net-(U1-Pad28)*%
X144384000Y-26543000D03*
%TO.P,U1,29*%
%TO.N,Net-(U1-Pad29)*%
X144384000Y-27343000D03*
%TO.P,U1,30*%
%TO.N,Net-(U1-Pad30)*%
X144384000Y-28143000D03*
%TO.P,U1,31*%
%TO.N,Net-(U1-Pad31)*%
X144384000Y-28943000D03*
%TO.P,U1,32*%
%TO.N,Net-(U1-Pad32)*%
X144384000Y-29743000D03*
%TO.P,U1,33*%
%TO.N,Net-(R4-Pad2)*%
X144384000Y-30543000D03*
D19*
%TO.P,U1,34*%
%TO.N,+5V*%
X142684000Y-32243000D03*
%TO.P,U1,35*%
%TO.N,GND*%
X141884000Y-32243000D03*
%TO.P,U1,36*%
%TO.N,Net-(U1-Pad36)*%
X141084000Y-32243000D03*
%TO.P,U1,37*%
%TO.N,Net-(U1-Pad37)*%
X140284000Y-32243000D03*
%TO.P,U1,38*%
%TO.N,Net-(U1-Pad38)*%
X139484000Y-32243000D03*
%TO.P,U1,39*%
%TO.N,Net-(U1-Pad39)*%
X138684000Y-32243000D03*
%TO.P,U1,40*%
%TO.N,Net-(U1-Pad40)*%
X137884000Y-32243000D03*
%TO.P,U1,41*%
%TO.N,Net-(U1-Pad41)*%
X137084000Y-32243000D03*
%TO.P,U1,42*%
%TO.N,Net-(U1-Pad42)*%
X136284000Y-32243000D03*
%TO.P,U1,43*%
%TO.N,GND*%
X135484000Y-32243000D03*
%TO.P,U1,44*%
%TO.N,+5V*%
X134684000Y-32243000D03*
%TD*%
D20*
%TO.N,+5V*%
X128905000Y-23622000D03*
X128905000Y-20574000D03*
X131064000Y-30988000D03*
X131064000Y-24511000D03*
X124460000Y-24130000D03*
X124460000Y-22548999D03*
%TO.N,GND*%
X131445000Y-22860000D03*
X134493000Y-19042999D03*
X127000000Y-30480000D03*
X127000000Y-27940000D03*
X146177000Y-23495000D03*
X147955000Y-33401000D03*
%TO.N,Net-(R3-Pad2)*%
X125730000Y-31750000D03*
X125730000Y-22548999D03*
%TO.N,COL0*%
X146050000Y-35560000D03*
X146045347Y-26674653D03*
%TD*%
D21*
%TO.N,+5V*%
X142684000Y-34292000D02*
X143571000Y-35179000D01*
X142684000Y-32243000D02*
X142684000Y-34292000D01*
X134684000Y-34739000D02*
X134244000Y-35179000D01*
X134684000Y-32243000D02*
X134684000Y-34739000D01*
X136284000Y-20032998D02*
X136284000Y-20843000D01*
X136019001Y-19767999D02*
X136284000Y-20032998D01*
X132058001Y-19767999D02*
X136019001Y-19767999D01*
X130556000Y-21270000D02*
X132058001Y-19767999D01*
X130542000Y-21256000D02*
X130556000Y-21270000D01*
X127127000Y-21256000D02*
X130542000Y-21256000D01*
X136284000Y-21843000D02*
X136284000Y-20843000D01*
X136359001Y-21918001D02*
X136284000Y-21843000D01*
X143219001Y-21918001D02*
X136359001Y-21918001D01*
X147903190Y-21463000D02*
X143674002Y-21463000D01*
X143674002Y-21463000D02*
X143219001Y-21918001D01*
X148370010Y-21929820D02*
X147903190Y-21463000D01*
X148370010Y-23267990D02*
X148370010Y-21929820D01*
X147320000Y-24318000D02*
X148370010Y-23267990D01*
X143219001Y-22988003D02*
X143219001Y-21918001D01*
X143573998Y-23343000D02*
X143219001Y-22988003D01*
X144384000Y-23343000D02*
X143573998Y-23343000D01*
X131908999Y-31078001D02*
X133073998Y-32243000D01*
X131908999Y-29818001D02*
X131908999Y-31078001D01*
X131984000Y-29743000D02*
X131908999Y-29818001D01*
X133073998Y-32243000D02*
X134684000Y-32243000D01*
X132984000Y-29743000D02*
X131984000Y-29743000D01*
X132984000Y-25743000D02*
X130899000Y-25743000D01*
X128905000Y-23749000D02*
X128905000Y-23622000D01*
X129860000Y-20574000D02*
X130556000Y-21270000D01*
X128905000Y-20574000D02*
X129860000Y-20574000D01*
X132042000Y-25743000D02*
X132984000Y-25743000D01*
X131154001Y-31078001D02*
X131064000Y-30988000D01*
X131908999Y-31078001D02*
X131154001Y-31078001D01*
X130619500Y-24955500D02*
X130111500Y-24955500D01*
X131064000Y-24511000D02*
X130619500Y-24955500D01*
X130111500Y-24955500D02*
X128905000Y-23749000D01*
X130899000Y-25743000D02*
X130111500Y-24955500D01*
X124027510Y-24562490D02*
X124460000Y-24130000D01*
X118201510Y-24562490D02*
X124027510Y-24562490D01*
X116332000Y-26432000D02*
X118201510Y-24562490D01*
X116332000Y-27057000D02*
X116332000Y-26432000D01*
X128152010Y-20230990D02*
X127127000Y-21256000D01*
X128152010Y-18930320D02*
X128152010Y-20230990D01*
X127815180Y-18593490D02*
X128152010Y-18930320D01*
X126438820Y-18593490D02*
X127815180Y-18593490D01*
X126101990Y-18930320D02*
X126438820Y-18593490D01*
X126101990Y-20118910D02*
X126101990Y-18930320D01*
X124460000Y-21760900D02*
X126101990Y-20118910D01*
X124460000Y-22548999D02*
X124460000Y-21760900D01*
%TO.N,GND*%
X137646000Y-17321000D02*
X137246000Y-17321000D01*
X139346000Y-15621000D02*
X137646000Y-17321000D01*
X139446000Y-15621000D02*
X139346000Y-15621000D01*
X139573000Y-15494000D02*
X139446000Y-15621000D01*
X141859000Y-15494000D02*
X139573000Y-15494000D01*
X137084000Y-20032998D02*
X137084000Y-20843000D01*
X134747000Y-17399000D02*
X134747000Y-17695998D01*
X133477000Y-14478000D02*
X133477000Y-16129000D01*
X138303000Y-14478000D02*
X133477000Y-14478000D01*
X133477000Y-16129000D02*
X134747000Y-17399000D01*
X139446000Y-15621000D02*
X138303000Y-14478000D01*
X135683999Y-34718999D02*
X136144000Y-35179000D01*
X135683999Y-32813999D02*
X135683999Y-34718999D01*
X135484000Y-32614000D02*
X135683999Y-32813999D01*
X135484000Y-32243000D02*
X135484000Y-32614000D01*
X141884000Y-34966000D02*
X141884000Y-32243000D01*
X141671000Y-35179000D02*
X141884000Y-34966000D01*
X130767000Y-27343000D02*
X132984000Y-27343000D01*
X129667000Y-28443000D02*
X130767000Y-27343000D01*
X133477000Y-16449000D02*
X133477000Y-16129000D01*
X130556000Y-19370000D02*
X133477000Y-16449000D01*
X121742000Y-20359715D02*
X121742000Y-20248000D01*
X144509000Y-22418000D02*
X144384000Y-22543000D01*
X147320000Y-22418000D02*
X144509000Y-22418000D01*
X147320000Y-28702000D02*
X147320000Y-29001310D01*
X141671000Y-35179000D02*
X136144000Y-35179000D01*
X135484000Y-29032998D02*
X135484000Y-32243000D01*
X133794002Y-27343000D02*
X135484000Y-29032998D01*
X132984000Y-27343000D02*
X133794002Y-27343000D01*
X128593998Y-22860000D02*
X131445000Y-22860000D01*
X128179999Y-23273999D02*
X128593998Y-22860000D01*
X128179999Y-26955999D02*
X128179999Y-23273999D01*
X129667000Y-28443000D02*
X128179999Y-26955999D01*
X136024001Y-19042999D02*
X136059001Y-19007999D01*
X134493000Y-19042999D02*
X136024001Y-19042999D01*
X136059001Y-19007999D02*
X137084000Y-20032998D01*
X134747000Y-17695998D02*
X136059001Y-19007999D01*
X148345010Y-29727010D02*
X147320000Y-28702000D01*
X148345010Y-31943180D02*
X148345010Y-29727010D01*
X142721010Y-36229010D02*
X144059180Y-36229010D01*
X141671000Y-35179000D02*
X142721010Y-36229010D01*
X123392999Y-23273999D02*
X128179999Y-23273999D01*
X121742000Y-21623000D02*
X123392999Y-23273999D01*
X121742000Y-20248000D02*
X121742000Y-21623000D01*
X123314000Y-30480000D02*
X127000000Y-30480000D01*
X122861000Y-30027000D02*
X123314000Y-30480000D01*
X127984001Y-26955999D02*
X128179999Y-26955999D01*
X127000000Y-27940000D02*
X127984001Y-26955999D01*
X147254000Y-22418000D02*
X146177000Y-23495000D01*
X147320000Y-22418000D02*
X147254000Y-22418000D01*
X147484595Y-32930595D02*
X147357595Y-32930595D01*
X147955000Y-33401000D02*
X147484595Y-32930595D01*
X147357595Y-32930595D02*
X148345010Y-31943180D01*
X144059180Y-36229010D02*
X147357595Y-32930595D01*
%TO.N,Net-(R4-Pad2)*%
X144400000Y-30527000D02*
X144384000Y-30543000D01*
X147320000Y-30527000D02*
X144400000Y-30527000D01*
%TO.N,Net-(C4-Pad1)*%
X138684000Y-18083000D02*
X138684000Y-20843000D01*
X139446000Y-17321000D02*
X138684000Y-18083000D01*
X141786000Y-17321000D02*
X141859000Y-17394000D01*
X139446000Y-17321000D02*
X141786000Y-17321000D01*
%TO.N,Net-(C5-Pad1)*%
X134869000Y-15621000D02*
X134747000Y-15499000D01*
X137246000Y-15621000D02*
X134869000Y-15621000D01*
X137884000Y-20032998D02*
X137884000Y-20843000D01*
X136220999Y-18369997D02*
X137884000Y-20032998D01*
X136220999Y-15696001D02*
X136220999Y-18369997D01*
X136296000Y-15621000D02*
X136220999Y-15696001D01*
X137246000Y-15621000D02*
X136296000Y-15621000D01*
%TO.N,Net-(R3-Pad2)*%
X135484000Y-21843000D02*
X135484000Y-20843000D01*
X135408999Y-21918001D02*
X135484000Y-21843000D01*
X131446189Y-21918001D02*
X135408999Y-21918001D01*
X126440320Y-22095010D02*
X131269180Y-22095010D01*
X126101990Y-21756680D02*
X126440320Y-22095010D01*
X131269180Y-22095010D02*
X131446189Y-21918001D01*
X126101990Y-20755320D02*
X126101990Y-21756680D01*
X127426310Y-19431000D02*
X126101990Y-20755320D01*
X127127000Y-19431000D02*
X127426310Y-19431000D01*
X118638000Y-31750000D02*
X125730000Y-31750000D01*
X116661000Y-33727000D02*
X118638000Y-31750000D01*
X126183989Y-22095010D02*
X126440320Y-22095010D01*
X125730000Y-22548999D02*
X126183989Y-22095010D01*
%TO.N,Net-(C7-Pad1)*%
X129667000Y-26543000D02*
X132984000Y-26543000D01*
%TO.N,Net-(R1-Pad1)*%
X130567988Y-29268010D02*
X131692998Y-28143000D01*
X131692998Y-28143000D02*
X132984000Y-28143000D01*
X125534010Y-29268010D02*
X130567988Y-29268010D01*
X121666000Y-25400000D02*
X125534010Y-29268010D01*
%TO.N,Net-(R2-Pad1)*%
X132147590Y-28943000D02*
X132984000Y-28943000D01*
X131372570Y-29718020D02*
X132147590Y-28943000D01*
X125347610Y-29718020D02*
X131372570Y-29718020D01*
X121867100Y-26237510D02*
X125347610Y-29718020D01*
X119836510Y-26237510D02*
X121867100Y-26237510D01*
X118999000Y-25400000D02*
X119836510Y-26237510D01*
%TO.N,Net-(D1-Pad2)*%
X127172000Y-43943000D02*
X126385000Y-43156000D01*
X131953000Y-43943000D02*
X127172000Y-43943000D01*
%TO.N,ROW0*%
X148271099Y-49974901D02*
X151003000Y-47243000D01*
X134684901Y-49974901D02*
X148271099Y-49974901D01*
X131953000Y-47243000D02*
X134684901Y-49974901D01*
X145384000Y-24143000D02*
X144384000Y-24143000D01*
X151928001Y-30687001D02*
X145384000Y-24143000D01*
X151928001Y-46317999D02*
X151928001Y-30687001D01*
X151003000Y-47243000D02*
X151928001Y-46317999D01*
%TO.N,Net-(D2-Pad2)*%
X146289000Y-43943000D02*
X145502000Y-43156000D01*
X151003000Y-43943000D02*
X146289000Y-43943000D01*
%TO.N,VCC*%
X118542000Y-20248000D02*
X118542000Y-21025000D01*
X118542000Y-22047000D02*
X118542000Y-20248000D01*
X116332000Y-24257000D02*
X118542000Y-22047000D01*
%TO.N,COL0*%
X136494000Y-45116000D02*
X146050000Y-35560000D01*
X120075000Y-45116000D02*
X136494000Y-45116000D01*
X145113694Y-25743000D02*
X144384000Y-25743000D01*
X146045347Y-26674653D02*
X145113694Y-25743000D01*
%TO.N,COL1*%
X148795019Y-28399019D02*
X145459001Y-25063001D01*
X148795019Y-35512981D02*
X148795019Y-28399019D01*
X139192000Y-45116000D02*
X148795019Y-35512981D01*
X144504001Y-25063001D02*
X144384000Y-24943000D01*
X145459001Y-25063001D02*
X144504001Y-25063001D01*
%TO.N,D+*%
X120142000Y-22051000D02*
X121666000Y-23575000D01*
X120142000Y-20248000D02*
X120142000Y-22051000D01*
%TO.N,D-*%
X119342000Y-23232000D02*
X118999000Y-23575000D01*
X119342000Y-20248000D02*
X119342000Y-23232000D01*
%TO.N,Net-(USB1-Pad6)*%
X116492000Y-15748000D02*
X123792000Y-15748000D01*
X116492000Y-15748000D02*
X116492000Y-20248000D01*
X123792000Y-15748000D02*
X123792000Y-20248000D01*
%TD*%
M02*
