%TF.GenerationSoftware,KiCad,Pcbnew,(5.1.8)-1*%
%TF.CreationDate,2020-12-12T02:16:41-05:00*%
%TF.ProjectId,experimental-pcb,65787065-7269-46d6-956e-74616c2d7063,rev?*%
%TF.SameCoordinates,Original*%
%TF.FileFunction,Copper,L1,Top*%
%TF.FilePolarity,Positive*%
%FSLAX46Y46*%
G04 Gerber Fmt 4.6, Leading zero omitted, Abs format (unit mm)*
G04 Created by KiCad (PCBNEW (5.1.8)-1) date 2020-12-12 02:16:41*
%MOMM*%
%LPD*%
G01*
G04 APERTURE LIST*
%TA.AperFunction,ComponentPad*%
%ADD10O,1.700000X2.700000*%
%TD*%
%TA.AperFunction,ComponentPad*%
%ADD11R,1.905000X1.905000*%
%TD*%
%TA.AperFunction,ComponentPad*%
%ADD12C,1.905000*%
%TD*%
%TA.AperFunction,ComponentPad*%
%ADD13C,2.250000*%
%TD*%
%TA.AperFunction,ViaPad*%
%ADD14C,0.800000*%
%TD*%
%TA.AperFunction,Conductor*%
%ADD15C,0.250000*%
%TD*%
G04 APERTURE END LIST*
D10*
%TO.P,USB1,6*%
%TO.N,Net-(USB1-Pad6)*%
X116492000Y-15748000D03*
X123792000Y-15748000D03*
X123792000Y-20248000D03*
X116492000Y-20248000D03*
%TD*%
D11*
%TO.P,MX2,4*%
%TO.N,N/C*%
X144272000Y-52736000D03*
D12*
%TO.P,MX2,3*%
X141732000Y-52736000D03*
D13*
%TO.P,MX2,1*%
%TO.N,COL1*%
X140502000Y-43656000D03*
%TA.AperFunction,ComponentPad*%
G36*
G01*
X138440688Y-45953350D02*
X138440683Y-45953345D01*
G75*
G02*
X138354655Y-44364683I751317J837345D01*
G01*
X139664657Y-42904683D01*
G75*
G02*
X141253319Y-42818655I837345J-751317D01*
G01*
X141253319Y-42818655D01*
G75*
G02*
X141339347Y-44407317I-751317J-837345D01*
G01*
X140029345Y-45867317D01*
G75*
G02*
X138440683Y-45953345I-837345J751317D01*
G01*
G37*
%TD.AperFunction*%
%TO.P,MX2,2*%
%TO.N,Net-(D2-Pad2)*%
X145542000Y-42576000D03*
%TA.AperFunction,ComponentPad*%
G36*
G01*
X145425483Y-44278395D02*
X145424597Y-44278334D01*
G75*
G02*
X144379666Y-43078597I77403J1122334D01*
G01*
X144419666Y-42498597D01*
G75*
G02*
X145619403Y-41453666I1122334J-77403D01*
G01*
X145619403Y-41453666D01*
G75*
G02*
X146664334Y-42653403I-77403J-1122334D01*
G01*
X146624334Y-43233403D01*
G75*
G02*
X145424597Y-44278334I-1122334J77403D01*
G01*
G37*
%TD.AperFunction*%
%TD*%
D11*
%TO.P,MX1,4*%
%TO.N,N/C*%
X125155000Y-52736000D03*
D12*
%TO.P,MX1,3*%
X122615000Y-52736000D03*
D13*
%TO.P,MX1,1*%
%TO.N,COL0*%
X121385000Y-43656000D03*
%TA.AperFunction,ComponentPad*%
G36*
G01*
X119323688Y-45953350D02*
X119323683Y-45953345D01*
G75*
G02*
X119237655Y-44364683I751317J837345D01*
G01*
X120547657Y-42904683D01*
G75*
G02*
X122136319Y-42818655I837345J-751317D01*
G01*
X122136319Y-42818655D01*
G75*
G02*
X122222347Y-44407317I-751317J-837345D01*
G01*
X120912345Y-45867317D01*
G75*
G02*
X119323683Y-45953345I-837345J751317D01*
G01*
G37*
%TD.AperFunction*%
%TO.P,MX1,2*%
%TO.N,Net-(D1-Pad2)*%
X126425000Y-42576000D03*
%TA.AperFunction,ComponentPad*%
G36*
G01*
X126308483Y-44278395D02*
X126307597Y-44278334D01*
G75*
G02*
X125262666Y-43078597I77403J1122334D01*
G01*
X125302666Y-42498597D01*
G75*
G02*
X126502403Y-41453666I1122334J-77403D01*
G01*
X126502403Y-41453666D01*
G75*
G02*
X127547334Y-42653403I-77403J-1122334D01*
G01*
X127507334Y-43233403D01*
G75*
G02*
X126307597Y-44278334I-1122334J77403D01*
G01*
G37*
%TD.AperFunction*%
%TD*%
D14*
%TO.N,+5V*%
X128905000Y-23622000D03*
X128905000Y-20574000D03*
X131064000Y-30988000D03*
X131064000Y-24511000D03*
X124460000Y-24130000D03*
X124460000Y-22548999D03*
%TO.N,GND*%
X131445000Y-22860000D03*
X134493000Y-19042999D03*
X127000000Y-30480000D03*
X127000000Y-27940000D03*
X146177000Y-23495000D03*
X147955000Y-33401000D03*
%TO.N,Net-(R3-Pad2)*%
X125730000Y-31750000D03*
X125730000Y-22548999D03*
%TO.N,COL0*%
X146050000Y-35560000D03*
X146045347Y-26674653D03*
%TD*%
D15*
%TO.N,+5V*%
X128905000Y-23622000D02*
X128905000Y-20574000D01*
X131064000Y-30988000D02*
X131064000Y-24511000D01*
X124460000Y-24130000D02*
X124460000Y-22548999D01*
%TO.N,GND*%
X131445000Y-22090999D02*
X134493000Y-19042999D01*
X131445000Y-22860000D02*
X131445000Y-22090999D01*
X127000000Y-30480000D02*
X127000000Y-27940000D01*
X146177000Y-23495000D02*
X149860000Y-23495000D01*
X149860000Y-23495000D02*
X149860000Y-33020000D01*
X149860000Y-33020000D02*
X148336000Y-33020000D01*
X148336000Y-33020000D02*
X147955000Y-33401000D01*
%TO.N,Net-(R3-Pad2)*%
X125730000Y-31750000D02*
X125730000Y-22548999D01*
%TO.N,COL0*%
X146050000Y-26679306D02*
X146045347Y-26674653D01*
X146050000Y-35560000D02*
X146050000Y-26679306D01*
%TD*%
M02*
