%TF.GenerationSoftware,KiCad,Pcbnew,(5.1.8)-1*%
%TF.CreationDate,2020-12-12T02:16:41-05:00*%
%TF.ProjectId,experimental-pcb,65787065-7269-46d6-956e-74616c2d7063,rev?*%
%TF.SameCoordinates,Original*%
%TF.FileFunction,Soldermask,Bot*%
%TF.FilePolarity,Negative*%
%FSLAX46Y46*%
G04 Gerber Fmt 4.6, Leading zero omitted, Abs format (unit mm)*
G04 Created by KiCad (PCBNEW (5.1.8)-1) date 2020-12-12 02:16:41*
%MOMM*%
%LPD*%
G01*
G04 APERTURE LIST*
%ADD10R,1.400000X1.200000*%
%ADD11O,1.700000X2.700000*%
%ADD12R,0.500000X2.250000*%
%ADD13R,1.800000X1.100000*%
%ADD14C,1.750000*%
%ADD15R,1.905000X1.905000*%
%ADD16C,1.905000*%
%ADD17C,2.250000*%
%ADD18C,3.987800*%
%ADD19R,1.200000X0.900000*%
%ADD20R,1.500000X0.550000*%
%ADD21R,0.550000X1.500000*%
G04 APERTURE END LIST*
D10*
%TO.C,Y1*%
X139446000Y-17321000D03*
X137246000Y-17321000D03*
X137246000Y-15621000D03*
X139446000Y-15621000D03*
%TD*%
D11*
%TO.C,USB1*%
X116492000Y-15748000D03*
X123792000Y-15748000D03*
X123792000Y-20248000D03*
X116492000Y-20248000D03*
D12*
X118542000Y-20248000D03*
X119342000Y-20248000D03*
X120142000Y-20248000D03*
X120942000Y-20248000D03*
X121742000Y-20248000D03*
%TD*%
D13*
%TO.C,SW1*%
X116661000Y-30027000D03*
X122861000Y-33727000D03*
X116661000Y-33727000D03*
X122861000Y-30027000D03*
%TD*%
%TO.C,R4*%
G36*
G01*
X146869999Y-28189500D02*
X147770001Y-28189500D01*
G75*
G02*
X148020000Y-28439499I0J-249999D01*
G01*
X148020000Y-28964501D01*
G75*
G02*
X147770001Y-29214500I-249999J0D01*
G01*
X146869999Y-29214500D01*
G75*
G02*
X146620000Y-28964501I0J249999D01*
G01*
X146620000Y-28439499D01*
G75*
G02*
X146869999Y-28189500I249999J0D01*
G01*
G37*
G36*
G01*
X146869999Y-30014500D02*
X147770001Y-30014500D01*
G75*
G02*
X148020000Y-30264499I0J-249999D01*
G01*
X148020000Y-30789501D01*
G75*
G02*
X147770001Y-31039500I-249999J0D01*
G01*
X146869999Y-31039500D01*
G75*
G02*
X146620000Y-30789501I0J249999D01*
G01*
X146620000Y-30264499D01*
G75*
G02*
X146869999Y-30014500I249999J0D01*
G01*
G37*
%TD*%
%TO.C,R3*%
G36*
G01*
X127577001Y-21768500D02*
X126676999Y-21768500D01*
G75*
G02*
X126427000Y-21518501I0J249999D01*
G01*
X126427000Y-20993499D01*
G75*
G02*
X126676999Y-20743500I249999J0D01*
G01*
X127577001Y-20743500D01*
G75*
G02*
X127827000Y-20993499I0J-249999D01*
G01*
X127827000Y-21518501D01*
G75*
G02*
X127577001Y-21768500I-249999J0D01*
G01*
G37*
G36*
G01*
X127577001Y-19943500D02*
X126676999Y-19943500D01*
G75*
G02*
X126427000Y-19693501I0J249999D01*
G01*
X126427000Y-19168499D01*
G75*
G02*
X126676999Y-18918500I249999J0D01*
G01*
X127577001Y-18918500D01*
G75*
G02*
X127827000Y-19168499I0J-249999D01*
G01*
X127827000Y-19693501D01*
G75*
G02*
X127577001Y-19943500I-249999J0D01*
G01*
G37*
%TD*%
%TO.C,R2*%
G36*
G01*
X119449001Y-24087500D02*
X118548999Y-24087500D01*
G75*
G02*
X118299000Y-23837501I0J249999D01*
G01*
X118299000Y-23312499D01*
G75*
G02*
X118548999Y-23062500I249999J0D01*
G01*
X119449001Y-23062500D01*
G75*
G02*
X119699000Y-23312499I0J-249999D01*
G01*
X119699000Y-23837501D01*
G75*
G02*
X119449001Y-24087500I-249999J0D01*
G01*
G37*
G36*
G01*
X119449001Y-25912500D02*
X118548999Y-25912500D01*
G75*
G02*
X118299000Y-25662501I0J249999D01*
G01*
X118299000Y-25137499D01*
G75*
G02*
X118548999Y-24887500I249999J0D01*
G01*
X119449001Y-24887500D01*
G75*
G02*
X119699000Y-25137499I0J-249999D01*
G01*
X119699000Y-25662501D01*
G75*
G02*
X119449001Y-25912500I-249999J0D01*
G01*
G37*
%TD*%
%TO.C,R1*%
G36*
G01*
X122116001Y-24087500D02*
X121215999Y-24087500D01*
G75*
G02*
X120966000Y-23837501I0J249999D01*
G01*
X120966000Y-23312499D01*
G75*
G02*
X121215999Y-23062500I249999J0D01*
G01*
X122116001Y-23062500D01*
G75*
G02*
X122366000Y-23312499I0J-249999D01*
G01*
X122366000Y-23837501D01*
G75*
G02*
X122116001Y-24087500I-249999J0D01*
G01*
G37*
G36*
G01*
X122116001Y-25912500D02*
X121215999Y-25912500D01*
G75*
G02*
X120966000Y-25662501I0J249999D01*
G01*
X120966000Y-25137499D01*
G75*
G02*
X121215999Y-24887500I249999J0D01*
G01*
X122116001Y-24887500D01*
G75*
G02*
X122366000Y-25137499I0J-249999D01*
G01*
X122366000Y-25662501D01*
G75*
G02*
X122116001Y-25912500I-249999J0D01*
G01*
G37*
%TD*%
D14*
%TO.C,MX2*%
X148082000Y-47656000D03*
X137922000Y-47656000D03*
D15*
X144272000Y-52736000D03*
D16*
X141732000Y-52736000D03*
D17*
X140502000Y-43656000D03*
D18*
X143002000Y-47656000D03*
G36*
G01*
X138440688Y-45953350D02*
X138440683Y-45953345D01*
G75*
G02*
X138354655Y-44364683I751317J837345D01*
G01*
X139664657Y-42904683D01*
G75*
G02*
X141253319Y-42818655I837345J-751317D01*
G01*
X141253319Y-42818655D01*
G75*
G02*
X141339347Y-44407317I-751317J-837345D01*
G01*
X140029345Y-45867317D01*
G75*
G02*
X138440683Y-45953345I-837345J751317D01*
G01*
G37*
D17*
X145542000Y-42576000D03*
G36*
G01*
X145425483Y-44278395D02*
X145424597Y-44278334D01*
G75*
G02*
X144379666Y-43078597I77403J1122334D01*
G01*
X144419666Y-42498597D01*
G75*
G02*
X145619403Y-41453666I1122334J-77403D01*
G01*
X145619403Y-41453666D01*
G75*
G02*
X146664334Y-42653403I-77403J-1122334D01*
G01*
X146624334Y-43233403D01*
G75*
G02*
X145424597Y-44278334I-1122334J77403D01*
G01*
G37*
%TD*%
D14*
%TO.C,MX1*%
X128965000Y-47656000D03*
X118805000Y-47656000D03*
D15*
X125155000Y-52736000D03*
D16*
X122615000Y-52736000D03*
D17*
X121385000Y-43656000D03*
D18*
X123885000Y-47656000D03*
G36*
G01*
X119323688Y-45953350D02*
X119323683Y-45953345D01*
G75*
G02*
X119237655Y-44364683I751317J837345D01*
G01*
X120547657Y-42904683D01*
G75*
G02*
X122136319Y-42818655I837345J-751317D01*
G01*
X122136319Y-42818655D01*
G75*
G02*
X122222347Y-44407317I-751317J-837345D01*
G01*
X120912345Y-45867317D01*
G75*
G02*
X119323683Y-45953345I-837345J751317D01*
G01*
G37*
D17*
X126425000Y-42576000D03*
G36*
G01*
X126308483Y-44278395D02*
X126307597Y-44278334D01*
G75*
G02*
X125262666Y-43078597I77403J1122334D01*
G01*
X125302666Y-42498597D01*
G75*
G02*
X126502403Y-41453666I1122334J-77403D01*
G01*
X126502403Y-41453666D01*
G75*
G02*
X127547334Y-42653403I-77403J-1122334D01*
G01*
X127507334Y-43233403D01*
G75*
G02*
X126307597Y-44278334I-1122334J77403D01*
G01*
G37*
%TD*%
%TO.C,F1*%
G36*
G01*
X116957000Y-24882000D02*
X115707000Y-24882000D01*
G75*
G02*
X115457000Y-24632000I0J250000D01*
G01*
X115457000Y-23882000D01*
G75*
G02*
X115707000Y-23632000I250000J0D01*
G01*
X116957000Y-23632000D01*
G75*
G02*
X117207000Y-23882000I0J-250000D01*
G01*
X117207000Y-24632000D01*
G75*
G02*
X116957000Y-24882000I-250000J0D01*
G01*
G37*
G36*
G01*
X116957000Y-27682000D02*
X115707000Y-27682000D01*
G75*
G02*
X115457000Y-27432000I0J250000D01*
G01*
X115457000Y-26682000D01*
G75*
G02*
X115707000Y-26432000I250000J0D01*
G01*
X116957000Y-26432000D01*
G75*
G02*
X117207000Y-26682000I0J-250000D01*
G01*
X117207000Y-27432000D01*
G75*
G02*
X116957000Y-27682000I-250000J0D01*
G01*
G37*
%TD*%
D19*
%TO.C,D2*%
X151003000Y-43943000D03*
X151003000Y-47243000D03*
%TD*%
%TO.C,D1*%
X131953000Y-43943000D03*
X131953000Y-47243000D03*
%TD*%
%TO.C,C7*%
G36*
G01*
X129192000Y-26043000D02*
X130142000Y-26043000D01*
G75*
G02*
X130392000Y-26293000I0J-250000D01*
G01*
X130392000Y-26793000D01*
G75*
G02*
X130142000Y-27043000I-250000J0D01*
G01*
X129192000Y-27043000D01*
G75*
G02*
X128942000Y-26793000I0J250000D01*
G01*
X128942000Y-26293000D01*
G75*
G02*
X129192000Y-26043000I250000J0D01*
G01*
G37*
G36*
G01*
X129192000Y-27943000D02*
X130142000Y-27943000D01*
G75*
G02*
X130392000Y-28193000I0J-250000D01*
G01*
X130392000Y-28693000D01*
G75*
G02*
X130142000Y-28943000I-250000J0D01*
G01*
X129192000Y-28943000D01*
G75*
G02*
X128942000Y-28693000I0J250000D01*
G01*
X128942000Y-28193000D01*
G75*
G02*
X129192000Y-27943000I250000J0D01*
G01*
G37*
%TD*%
%TO.C,C6*%
G36*
G01*
X133744000Y-35654000D02*
X133744000Y-34704000D01*
G75*
G02*
X133994000Y-34454000I250000J0D01*
G01*
X134494000Y-34454000D01*
G75*
G02*
X134744000Y-34704000I0J-250000D01*
G01*
X134744000Y-35654000D01*
G75*
G02*
X134494000Y-35904000I-250000J0D01*
G01*
X133994000Y-35904000D01*
G75*
G02*
X133744000Y-35654000I0J250000D01*
G01*
G37*
G36*
G01*
X135644000Y-35654000D02*
X135644000Y-34704000D01*
G75*
G02*
X135894000Y-34454000I250000J0D01*
G01*
X136394000Y-34454000D01*
G75*
G02*
X136644000Y-34704000I0J-250000D01*
G01*
X136644000Y-35654000D01*
G75*
G02*
X136394000Y-35904000I-250000J0D01*
G01*
X135894000Y-35904000D01*
G75*
G02*
X135644000Y-35654000I0J250000D01*
G01*
G37*
%TD*%
%TO.C,C5*%
G36*
G01*
X134272000Y-14999000D02*
X135222000Y-14999000D01*
G75*
G02*
X135472000Y-15249000I0J-250000D01*
G01*
X135472000Y-15749000D01*
G75*
G02*
X135222000Y-15999000I-250000J0D01*
G01*
X134272000Y-15999000D01*
G75*
G02*
X134022000Y-15749000I0J250000D01*
G01*
X134022000Y-15249000D01*
G75*
G02*
X134272000Y-14999000I250000J0D01*
G01*
G37*
G36*
G01*
X134272000Y-16899000D02*
X135222000Y-16899000D01*
G75*
G02*
X135472000Y-17149000I0J-250000D01*
G01*
X135472000Y-17649000D01*
G75*
G02*
X135222000Y-17899000I-250000J0D01*
G01*
X134272000Y-17899000D01*
G75*
G02*
X134022000Y-17649000I0J250000D01*
G01*
X134022000Y-17149000D01*
G75*
G02*
X134272000Y-16899000I250000J0D01*
G01*
G37*
%TD*%
%TO.C,C4*%
G36*
G01*
X142334000Y-17894000D02*
X141384000Y-17894000D01*
G75*
G02*
X141134000Y-17644000I0J250000D01*
G01*
X141134000Y-17144000D01*
G75*
G02*
X141384000Y-16894000I250000J0D01*
G01*
X142334000Y-16894000D01*
G75*
G02*
X142584000Y-17144000I0J-250000D01*
G01*
X142584000Y-17644000D01*
G75*
G02*
X142334000Y-17894000I-250000J0D01*
G01*
G37*
G36*
G01*
X142334000Y-15994000D02*
X141384000Y-15994000D01*
G75*
G02*
X141134000Y-15744000I0J250000D01*
G01*
X141134000Y-15244000D01*
G75*
G02*
X141384000Y-14994000I250000J0D01*
G01*
X142334000Y-14994000D01*
G75*
G02*
X142584000Y-15244000I0J-250000D01*
G01*
X142584000Y-15744000D01*
G75*
G02*
X142334000Y-15994000I-250000J0D01*
G01*
G37*
%TD*%
%TO.C,C3*%
G36*
G01*
X147795000Y-24818000D02*
X146845000Y-24818000D01*
G75*
G02*
X146595000Y-24568000I0J250000D01*
G01*
X146595000Y-24068000D01*
G75*
G02*
X146845000Y-23818000I250000J0D01*
G01*
X147795000Y-23818000D01*
G75*
G02*
X148045000Y-24068000I0J-250000D01*
G01*
X148045000Y-24568000D01*
G75*
G02*
X147795000Y-24818000I-250000J0D01*
G01*
G37*
G36*
G01*
X147795000Y-22918000D02*
X146845000Y-22918000D01*
G75*
G02*
X146595000Y-22668000I0J250000D01*
G01*
X146595000Y-22168000D01*
G75*
G02*
X146845000Y-21918000I250000J0D01*
G01*
X147795000Y-21918000D01*
G75*
G02*
X148045000Y-22168000I0J-250000D01*
G01*
X148045000Y-22668000D01*
G75*
G02*
X147795000Y-22918000I-250000J0D01*
G01*
G37*
%TD*%
%TO.C,C2*%
G36*
G01*
X144071000Y-34704000D02*
X144071000Y-35654000D01*
G75*
G02*
X143821000Y-35904000I-250000J0D01*
G01*
X143321000Y-35904000D01*
G75*
G02*
X143071000Y-35654000I0J250000D01*
G01*
X143071000Y-34704000D01*
G75*
G02*
X143321000Y-34454000I250000J0D01*
G01*
X143821000Y-34454000D01*
G75*
G02*
X144071000Y-34704000I0J-250000D01*
G01*
G37*
G36*
G01*
X142171000Y-34704000D02*
X142171000Y-35654000D01*
G75*
G02*
X141921000Y-35904000I-250000J0D01*
G01*
X141421000Y-35904000D01*
G75*
G02*
X141171000Y-35654000I0J250000D01*
G01*
X141171000Y-34704000D01*
G75*
G02*
X141421000Y-34454000I250000J0D01*
G01*
X141921000Y-34454000D01*
G75*
G02*
X142171000Y-34704000I0J-250000D01*
G01*
G37*
%TD*%
%TO.C,C1*%
G36*
G01*
X131031000Y-21770000D02*
X130081000Y-21770000D01*
G75*
G02*
X129831000Y-21520000I0J250000D01*
G01*
X129831000Y-21020000D01*
G75*
G02*
X130081000Y-20770000I250000J0D01*
G01*
X131031000Y-20770000D01*
G75*
G02*
X131281000Y-21020000I0J-250000D01*
G01*
X131281000Y-21520000D01*
G75*
G02*
X131031000Y-21770000I-250000J0D01*
G01*
G37*
G36*
G01*
X131031000Y-19870000D02*
X130081000Y-19870000D01*
G75*
G02*
X129831000Y-19620000I0J250000D01*
G01*
X129831000Y-19120000D01*
G75*
G02*
X130081000Y-18870000I250000J0D01*
G01*
X131031000Y-18870000D01*
G75*
G02*
X131281000Y-19120000I0J-250000D01*
G01*
X131281000Y-19620000D01*
G75*
G02*
X131031000Y-19870000I-250000J0D01*
G01*
G37*
%TD*%
D20*
%TO.C,U1*%
X132984000Y-30543000D03*
X132984000Y-29743000D03*
X132984000Y-28943000D03*
X132984000Y-28143000D03*
X132984000Y-27343000D03*
X132984000Y-26543000D03*
X132984000Y-25743000D03*
X132984000Y-24943000D03*
X132984000Y-24143000D03*
X132984000Y-23343000D03*
X132984000Y-22543000D03*
D21*
X134684000Y-20843000D03*
X135484000Y-20843000D03*
X136284000Y-20843000D03*
X137084000Y-20843000D03*
X137884000Y-20843000D03*
X138684000Y-20843000D03*
X139484000Y-20843000D03*
X140284000Y-20843000D03*
X141084000Y-20843000D03*
X141884000Y-20843000D03*
X142684000Y-20843000D03*
D20*
X144384000Y-22543000D03*
X144384000Y-23343000D03*
X144384000Y-24143000D03*
X144384000Y-24943000D03*
X144384000Y-25743000D03*
X144384000Y-26543000D03*
X144384000Y-27343000D03*
X144384000Y-28143000D03*
X144384000Y-28943000D03*
X144384000Y-29743000D03*
X144384000Y-30543000D03*
D21*
X142684000Y-32243000D03*
X141884000Y-32243000D03*
X141084000Y-32243000D03*
X140284000Y-32243000D03*
X139484000Y-32243000D03*
X138684000Y-32243000D03*
X137884000Y-32243000D03*
X137084000Y-32243000D03*
X136284000Y-32243000D03*
X135484000Y-32243000D03*
X134684000Y-32243000D03*
%TD*%
M02*
