%TF.GenerationSoftware,KiCad,Pcbnew,(5.1.8)-1*%
%TF.CreationDate,2020-12-12T02:16:41-05:00*%
%TF.ProjectId,experimental-pcb,65787065-7269-46d6-956e-74616c2d7063,rev?*%
%TF.SameCoordinates,Original*%
%TF.FileFunction,Legend,Bot*%
%TF.FilePolarity,Positive*%
%FSLAX46Y46*%
G04 Gerber Fmt 4.6, Leading zero omitted, Abs format (unit mm)*
G04 Created by KiCad (PCBNEW (5.1.8)-1) date 2020-12-12 02:16:41*
%MOMM*%
%LPD*%
G01*
G04 APERTURE LIST*
%ADD10C,0.120000*%
%ADD11C,0.150000*%
%ADD12R,1.400000X1.200000*%
%ADD13O,1.700000X2.700000*%
%ADD14R,0.500000X2.250000*%
%ADD15R,1.800000X1.100000*%
%ADD16C,1.750000*%
%ADD17R,1.905000X1.905000*%
%ADD18C,1.905000*%
%ADD19C,2.250000*%
%ADD20C,3.987800*%
%ADD21R,1.200000X0.900000*%
%ADD22R,1.500000X0.550000*%
%ADD23R,0.550000X1.500000*%
G04 APERTURE END LIST*
D10*
%TO.C,Y1*%
X140346000Y-18121000D02*
X136346000Y-18121000D01*
X140346000Y-14821000D02*
X140346000Y-18121000D01*
D11*
%TO.C,USB1*%
X116292000Y-21198000D02*
X123992000Y-21198000D01*
X123992000Y-15748000D02*
X123992000Y-21198000D01*
X116292000Y-15748000D02*
X116292000Y-21198000D01*
%TO.C,SW1*%
X120761000Y-31877000D02*
G75*
G03*
X120761000Y-31877000I-1000000J0D01*
G01*
X117161000Y-29277000D02*
X117161000Y-34477000D01*
X122361000Y-29277000D02*
X117161000Y-29277000D01*
X122361000Y-34477000D02*
X122361000Y-29277000D01*
X117161000Y-34477000D02*
X122361000Y-34477000D01*
D10*
%TO.C,R4*%
X148055000Y-29387436D02*
X148055000Y-29841564D01*
X146585000Y-29387436D02*
X146585000Y-29841564D01*
%TO.C,R3*%
X126392000Y-20570564D02*
X126392000Y-20116436D01*
X127862000Y-20570564D02*
X127862000Y-20116436D01*
%TO.C,R2*%
X119734000Y-24714564D02*
X119734000Y-24260436D01*
X118264000Y-24714564D02*
X118264000Y-24260436D01*
%TO.C,R1*%
X122401000Y-24714564D02*
X122401000Y-24260436D01*
X120931000Y-24714564D02*
X120931000Y-24260436D01*
%TO.C,F1*%
X117242000Y-26259064D02*
X117242000Y-25054936D01*
X115422000Y-26259064D02*
X115422000Y-25054936D01*
%TO.C,D2*%
X152003000Y-47843000D02*
X150003000Y-47843000D01*
X150003000Y-47843000D02*
X150003000Y-43943000D01*
X152003000Y-47843000D02*
X152003000Y-43943000D01*
%TO.C,D1*%
X132953000Y-47843000D02*
X130953000Y-47843000D01*
X130953000Y-47843000D02*
X130953000Y-43943000D01*
X132953000Y-47843000D02*
X132953000Y-43943000D01*
%TO.C,C7*%
X130402000Y-27231748D02*
X130402000Y-27754252D01*
X128932000Y-27231748D02*
X128932000Y-27754252D01*
%TO.C,C6*%
X134932748Y-34444000D02*
X135455252Y-34444000D01*
X134932748Y-35914000D02*
X135455252Y-35914000D01*
%TO.C,C5*%
X135482000Y-16187748D02*
X135482000Y-16710252D01*
X134012000Y-16187748D02*
X134012000Y-16710252D01*
%TO.C,C4*%
X141124000Y-16705252D02*
X141124000Y-16182748D01*
X142594000Y-16705252D02*
X142594000Y-16182748D01*
%TO.C,C3*%
X146585000Y-23629252D02*
X146585000Y-23106748D01*
X148055000Y-23629252D02*
X148055000Y-23106748D01*
%TO.C,C2*%
X142882252Y-35914000D02*
X142359748Y-35914000D01*
X142882252Y-34444000D02*
X142359748Y-34444000D01*
%TO.C,C1*%
X129821000Y-20581252D02*
X129821000Y-20058748D01*
X131291000Y-20581252D02*
X131291000Y-20058748D01*
D11*
%TO.C,U1*%
X133509000Y-31143000D02*
X132234000Y-31143000D01*
X143859000Y-31718000D02*
X143184000Y-31718000D01*
X143859000Y-21368000D02*
X143184000Y-21368000D01*
X133509000Y-21368000D02*
X134184000Y-21368000D01*
X133509000Y-31718000D02*
X134184000Y-31718000D01*
X133509000Y-21368000D02*
X133509000Y-22043000D01*
X143859000Y-21368000D02*
X143859000Y-22043000D01*
X143859000Y-31718000D02*
X143859000Y-31043000D01*
X133509000Y-31718000D02*
X133509000Y-31143000D01*
%TO.C,Y1*%
X138822190Y-13997190D02*
X138822190Y-14473380D01*
X139155523Y-13473380D02*
X138822190Y-13997190D01*
X138488857Y-13473380D01*
X137631714Y-14473380D02*
X138203142Y-14473380D01*
X137917428Y-14473380D02*
X137917428Y-13473380D01*
X138012666Y-13616238D01*
X138107904Y-13711476D01*
X138203142Y-13759095D01*
%TO.C,USB1*%
X121880095Y-17232380D02*
X121880095Y-18041904D01*
X121832476Y-18137142D01*
X121784857Y-18184761D01*
X121689619Y-18232380D01*
X121499142Y-18232380D01*
X121403904Y-18184761D01*
X121356285Y-18137142D01*
X121308666Y-18041904D01*
X121308666Y-17232380D01*
X120880095Y-18184761D02*
X120737238Y-18232380D01*
X120499142Y-18232380D01*
X120403904Y-18184761D01*
X120356285Y-18137142D01*
X120308666Y-18041904D01*
X120308666Y-17946666D01*
X120356285Y-17851428D01*
X120403904Y-17803809D01*
X120499142Y-17756190D01*
X120689619Y-17708571D01*
X120784857Y-17660952D01*
X120832476Y-17613333D01*
X120880095Y-17518095D01*
X120880095Y-17422857D01*
X120832476Y-17327619D01*
X120784857Y-17280000D01*
X120689619Y-17232380D01*
X120451523Y-17232380D01*
X120308666Y-17280000D01*
X119546761Y-17708571D02*
X119403904Y-17756190D01*
X119356285Y-17803809D01*
X119308666Y-17899047D01*
X119308666Y-18041904D01*
X119356285Y-18137142D01*
X119403904Y-18184761D01*
X119499142Y-18232380D01*
X119880095Y-18232380D01*
X119880095Y-17232380D01*
X119546761Y-17232380D01*
X119451523Y-17280000D01*
X119403904Y-17327619D01*
X119356285Y-17422857D01*
X119356285Y-17518095D01*
X119403904Y-17613333D01*
X119451523Y-17660952D01*
X119546761Y-17708571D01*
X119880095Y-17708571D01*
X118356285Y-18232380D02*
X118927714Y-18232380D01*
X118642000Y-18232380D02*
X118642000Y-17232380D01*
X118737238Y-17375238D01*
X118832476Y-17470476D01*
X118927714Y-17518095D01*
%TO.C,SW1*%
X121094333Y-28217761D02*
X120951476Y-28265380D01*
X120713380Y-28265380D01*
X120618142Y-28217761D01*
X120570523Y-28170142D01*
X120522904Y-28074904D01*
X120522904Y-27979666D01*
X120570523Y-27884428D01*
X120618142Y-27836809D01*
X120713380Y-27789190D01*
X120903857Y-27741571D01*
X120999095Y-27693952D01*
X121046714Y-27646333D01*
X121094333Y-27551095D01*
X121094333Y-27455857D01*
X121046714Y-27360619D01*
X120999095Y-27313000D01*
X120903857Y-27265380D01*
X120665761Y-27265380D01*
X120522904Y-27313000D01*
X120189571Y-27265380D02*
X119951476Y-28265380D01*
X119761000Y-27551095D01*
X119570523Y-28265380D01*
X119332428Y-27265380D01*
X118427666Y-28265380D02*
X118999095Y-28265380D01*
X118713380Y-28265380D02*
X118713380Y-27265380D01*
X118808619Y-27408238D01*
X118903857Y-27503476D01*
X118999095Y-27551095D01*
%TO.C,R4*%
X146122380Y-29447833D02*
X145646190Y-29114500D01*
X146122380Y-28876404D02*
X145122380Y-28876404D01*
X145122380Y-29257357D01*
X145170000Y-29352595D01*
X145217619Y-29400214D01*
X145312857Y-29447833D01*
X145455714Y-29447833D01*
X145550952Y-29400214D01*
X145598571Y-29352595D01*
X145646190Y-29257357D01*
X145646190Y-28876404D01*
X145455714Y-30304976D02*
X146122380Y-30304976D01*
X145074761Y-30066880D02*
X145789047Y-29828785D01*
X145789047Y-30447833D01*
%TO.C,R3*%
X129229380Y-20176833D02*
X128753190Y-19843500D01*
X129229380Y-19605404D02*
X128229380Y-19605404D01*
X128229380Y-19986357D01*
X128277000Y-20081595D01*
X128324619Y-20129214D01*
X128419857Y-20176833D01*
X128562714Y-20176833D01*
X128657952Y-20129214D01*
X128705571Y-20081595D01*
X128753190Y-19986357D01*
X128753190Y-19605404D01*
X128229380Y-20510166D02*
X128229380Y-21129214D01*
X128610333Y-20795880D01*
X128610333Y-20938738D01*
X128657952Y-21033976D01*
X128705571Y-21081595D01*
X128800809Y-21129214D01*
X129038904Y-21129214D01*
X129134142Y-21081595D01*
X129181761Y-21033976D01*
X129229380Y-20938738D01*
X129229380Y-20653023D01*
X129181761Y-20557785D01*
X129134142Y-20510166D01*
%TO.C,R2*%
X121101380Y-24320833D02*
X120625190Y-23987500D01*
X121101380Y-23749404D02*
X120101380Y-23749404D01*
X120101380Y-24130357D01*
X120149000Y-24225595D01*
X120196619Y-24273214D01*
X120291857Y-24320833D01*
X120434714Y-24320833D01*
X120529952Y-24273214D01*
X120577571Y-24225595D01*
X120625190Y-24130357D01*
X120625190Y-23749404D01*
X120196619Y-24701785D02*
X120149000Y-24749404D01*
X120101380Y-24844642D01*
X120101380Y-25082738D01*
X120149000Y-25177976D01*
X120196619Y-25225595D01*
X120291857Y-25273214D01*
X120387095Y-25273214D01*
X120529952Y-25225595D01*
X121101380Y-24654166D01*
X121101380Y-25273214D01*
%TO.C,R1*%
X123768380Y-24320833D02*
X123292190Y-23987500D01*
X123768380Y-23749404D02*
X122768380Y-23749404D01*
X122768380Y-24130357D01*
X122816000Y-24225595D01*
X122863619Y-24273214D01*
X122958857Y-24320833D01*
X123101714Y-24320833D01*
X123196952Y-24273214D01*
X123244571Y-24225595D01*
X123292190Y-24130357D01*
X123292190Y-23749404D01*
X123768380Y-25273214D02*
X123768380Y-24701785D01*
X123768380Y-24987500D02*
X122768380Y-24987500D01*
X122911238Y-24892261D01*
X123006476Y-24797023D01*
X123054095Y-24701785D01*
%TO.C,F1*%
X118080571Y-25323666D02*
X118080571Y-24990333D01*
X118604380Y-24990333D02*
X117604380Y-24990333D01*
X117604380Y-25466523D01*
X118604380Y-26371285D02*
X118604380Y-25799857D01*
X118604380Y-26085571D02*
X117604380Y-26085571D01*
X117747238Y-25990333D01*
X117842476Y-25895095D01*
X117890095Y-25799857D01*
%TO.C,D2*%
X153455380Y-44854904D02*
X152455380Y-44854904D01*
X152455380Y-45093000D01*
X152503000Y-45235857D01*
X152598238Y-45331095D01*
X152693476Y-45378714D01*
X152883952Y-45426333D01*
X153026809Y-45426333D01*
X153217285Y-45378714D01*
X153312523Y-45331095D01*
X153407761Y-45235857D01*
X153455380Y-45093000D01*
X153455380Y-44854904D01*
X152550619Y-45807285D02*
X152503000Y-45854904D01*
X152455380Y-45950142D01*
X152455380Y-46188238D01*
X152503000Y-46283476D01*
X152550619Y-46331095D01*
X152645857Y-46378714D01*
X152741095Y-46378714D01*
X152883952Y-46331095D01*
X153455380Y-45759666D01*
X153455380Y-46378714D01*
%TO.C,D1*%
X133500619Y-46331095D02*
X134500619Y-46331095D01*
X134500619Y-46093000D01*
X134453000Y-45950142D01*
X134357761Y-45854904D01*
X134262523Y-45807285D01*
X134072047Y-45759666D01*
X133929190Y-45759666D01*
X133738714Y-45807285D01*
X133643476Y-45854904D01*
X133548238Y-45950142D01*
X133500619Y-46093000D01*
X133500619Y-46331095D01*
X133500619Y-44807285D02*
X133500619Y-45378714D01*
X133500619Y-45093000D02*
X134500619Y-45093000D01*
X134357761Y-45188238D01*
X134262523Y-45283476D01*
X134214904Y-45378714D01*
%TO.C,C7*%
X128344142Y-27326333D02*
X128391761Y-27278714D01*
X128439380Y-27135857D01*
X128439380Y-27040619D01*
X128391761Y-26897761D01*
X128296523Y-26802523D01*
X128201285Y-26754904D01*
X128010809Y-26707285D01*
X127867952Y-26707285D01*
X127677476Y-26754904D01*
X127582238Y-26802523D01*
X127487000Y-26897761D01*
X127439380Y-27040619D01*
X127439380Y-27135857D01*
X127487000Y-27278714D01*
X127534619Y-27326333D01*
X127439380Y-27659666D02*
X127439380Y-28326333D01*
X128439380Y-27897761D01*
%TO.C,C6*%
X135360666Y-37216142D02*
X135408285Y-37263761D01*
X135551142Y-37311380D01*
X135646380Y-37311380D01*
X135789238Y-37263761D01*
X135884476Y-37168523D01*
X135932095Y-37073285D01*
X135979714Y-36882809D01*
X135979714Y-36739952D01*
X135932095Y-36549476D01*
X135884476Y-36454238D01*
X135789238Y-36359000D01*
X135646380Y-36311380D01*
X135551142Y-36311380D01*
X135408285Y-36359000D01*
X135360666Y-36406619D01*
X134503523Y-36311380D02*
X134694000Y-36311380D01*
X134789238Y-36359000D01*
X134836857Y-36406619D01*
X134932095Y-36549476D01*
X134979714Y-36739952D01*
X134979714Y-37120904D01*
X134932095Y-37216142D01*
X134884476Y-37263761D01*
X134789238Y-37311380D01*
X134598761Y-37311380D01*
X134503523Y-37263761D01*
X134455904Y-37216142D01*
X134408285Y-37120904D01*
X134408285Y-36882809D01*
X134455904Y-36787571D01*
X134503523Y-36739952D01*
X134598761Y-36692333D01*
X134789238Y-36692333D01*
X134884476Y-36739952D01*
X134932095Y-36787571D01*
X134979714Y-36882809D01*
%TO.C,C5*%
X133424142Y-16282333D02*
X133471761Y-16234714D01*
X133519380Y-16091857D01*
X133519380Y-15996619D01*
X133471761Y-15853761D01*
X133376523Y-15758523D01*
X133281285Y-15710904D01*
X133090809Y-15663285D01*
X132947952Y-15663285D01*
X132757476Y-15710904D01*
X132662238Y-15758523D01*
X132567000Y-15853761D01*
X132519380Y-15996619D01*
X132519380Y-16091857D01*
X132567000Y-16234714D01*
X132614619Y-16282333D01*
X132519380Y-17187095D02*
X132519380Y-16710904D01*
X132995571Y-16663285D01*
X132947952Y-16710904D01*
X132900333Y-16806142D01*
X132900333Y-17044238D01*
X132947952Y-17139476D01*
X132995571Y-17187095D01*
X133090809Y-17234714D01*
X133328904Y-17234714D01*
X133424142Y-17187095D01*
X133471761Y-17139476D01*
X133519380Y-17044238D01*
X133519380Y-16806142D01*
X133471761Y-16710904D01*
X133424142Y-16663285D01*
%TO.C,C4*%
X143896142Y-16277333D02*
X143943761Y-16229714D01*
X143991380Y-16086857D01*
X143991380Y-15991619D01*
X143943761Y-15848761D01*
X143848523Y-15753523D01*
X143753285Y-15705904D01*
X143562809Y-15658285D01*
X143419952Y-15658285D01*
X143229476Y-15705904D01*
X143134238Y-15753523D01*
X143039000Y-15848761D01*
X142991380Y-15991619D01*
X142991380Y-16086857D01*
X143039000Y-16229714D01*
X143086619Y-16277333D01*
X143324714Y-17134476D02*
X143991380Y-17134476D01*
X142943761Y-16896380D02*
X143658047Y-16658285D01*
X143658047Y-17277333D01*
%TO.C,C3*%
X149357142Y-23201333D02*
X149404761Y-23153714D01*
X149452380Y-23010857D01*
X149452380Y-22915619D01*
X149404761Y-22772761D01*
X149309523Y-22677523D01*
X149214285Y-22629904D01*
X149023809Y-22582285D01*
X148880952Y-22582285D01*
X148690476Y-22629904D01*
X148595238Y-22677523D01*
X148500000Y-22772761D01*
X148452380Y-22915619D01*
X148452380Y-23010857D01*
X148500000Y-23153714D01*
X148547619Y-23201333D01*
X148452380Y-23534666D02*
X148452380Y-24153714D01*
X148833333Y-23820380D01*
X148833333Y-23963238D01*
X148880952Y-24058476D01*
X148928571Y-24106095D01*
X149023809Y-24153714D01*
X149261904Y-24153714D01*
X149357142Y-24106095D01*
X149404761Y-24058476D01*
X149452380Y-23963238D01*
X149452380Y-23677523D01*
X149404761Y-23582285D01*
X149357142Y-23534666D01*
%TO.C,C2*%
X142787666Y-33856142D02*
X142835285Y-33903761D01*
X142978142Y-33951380D01*
X143073380Y-33951380D01*
X143216238Y-33903761D01*
X143311476Y-33808523D01*
X143359095Y-33713285D01*
X143406714Y-33522809D01*
X143406714Y-33379952D01*
X143359095Y-33189476D01*
X143311476Y-33094238D01*
X143216238Y-32999000D01*
X143073380Y-32951380D01*
X142978142Y-32951380D01*
X142835285Y-32999000D01*
X142787666Y-33046619D01*
X142406714Y-33046619D02*
X142359095Y-32999000D01*
X142263857Y-32951380D01*
X142025761Y-32951380D01*
X141930523Y-32999000D01*
X141882904Y-33046619D01*
X141835285Y-33141857D01*
X141835285Y-33237095D01*
X141882904Y-33379952D01*
X142454333Y-33951380D01*
X141835285Y-33951380D01*
%TO.C,C1*%
X132593142Y-20153333D02*
X132640761Y-20105714D01*
X132688380Y-19962857D01*
X132688380Y-19867619D01*
X132640761Y-19724761D01*
X132545523Y-19629523D01*
X132450285Y-19581904D01*
X132259809Y-19534285D01*
X132116952Y-19534285D01*
X131926476Y-19581904D01*
X131831238Y-19629523D01*
X131736000Y-19724761D01*
X131688380Y-19867619D01*
X131688380Y-19962857D01*
X131736000Y-20105714D01*
X131783619Y-20153333D01*
X132688380Y-21105714D02*
X132688380Y-20534285D01*
X132688380Y-20820000D02*
X131688380Y-20820000D01*
X131831238Y-20724761D01*
X131926476Y-20629523D01*
X131974095Y-20534285D01*
%TO.C,U1*%
X139445904Y-33445380D02*
X139445904Y-34254904D01*
X139398285Y-34350142D01*
X139350666Y-34397761D01*
X139255428Y-34445380D01*
X139064952Y-34445380D01*
X138969714Y-34397761D01*
X138922095Y-34350142D01*
X138874476Y-34254904D01*
X138874476Y-33445380D01*
X137874476Y-34445380D02*
X138445904Y-34445380D01*
X138160190Y-34445380D02*
X138160190Y-33445380D01*
X138255428Y-33588238D01*
X138350666Y-33683476D01*
X138445904Y-33731095D01*
%TD*%
%LPC*%
D12*
%TO.C,Y1*%
X139446000Y-17321000D03*
X137246000Y-17321000D03*
X137246000Y-15621000D03*
X139446000Y-15621000D03*
%TD*%
D13*
%TO.C,USB1*%
X116492000Y-15748000D03*
X123792000Y-15748000D03*
X123792000Y-20248000D03*
X116492000Y-20248000D03*
D14*
X118542000Y-20248000D03*
X119342000Y-20248000D03*
X120142000Y-20248000D03*
X120942000Y-20248000D03*
X121742000Y-20248000D03*
%TD*%
D15*
%TO.C,SW1*%
X116661000Y-30027000D03*
X122861000Y-33727000D03*
X116661000Y-33727000D03*
X122861000Y-30027000D03*
%TD*%
%TO.C,R4*%
G36*
G01*
X146869999Y-28189500D02*
X147770001Y-28189500D01*
G75*
G02*
X148020000Y-28439499I0J-249999D01*
G01*
X148020000Y-28964501D01*
G75*
G02*
X147770001Y-29214500I-249999J0D01*
G01*
X146869999Y-29214500D01*
G75*
G02*
X146620000Y-28964501I0J249999D01*
G01*
X146620000Y-28439499D01*
G75*
G02*
X146869999Y-28189500I249999J0D01*
G01*
G37*
G36*
G01*
X146869999Y-30014500D02*
X147770001Y-30014500D01*
G75*
G02*
X148020000Y-30264499I0J-249999D01*
G01*
X148020000Y-30789501D01*
G75*
G02*
X147770001Y-31039500I-249999J0D01*
G01*
X146869999Y-31039500D01*
G75*
G02*
X146620000Y-30789501I0J249999D01*
G01*
X146620000Y-30264499D01*
G75*
G02*
X146869999Y-30014500I249999J0D01*
G01*
G37*
%TD*%
%TO.C,R3*%
G36*
G01*
X127577001Y-21768500D02*
X126676999Y-21768500D01*
G75*
G02*
X126427000Y-21518501I0J249999D01*
G01*
X126427000Y-20993499D01*
G75*
G02*
X126676999Y-20743500I249999J0D01*
G01*
X127577001Y-20743500D01*
G75*
G02*
X127827000Y-20993499I0J-249999D01*
G01*
X127827000Y-21518501D01*
G75*
G02*
X127577001Y-21768500I-249999J0D01*
G01*
G37*
G36*
G01*
X127577001Y-19943500D02*
X126676999Y-19943500D01*
G75*
G02*
X126427000Y-19693501I0J249999D01*
G01*
X126427000Y-19168499D01*
G75*
G02*
X126676999Y-18918500I249999J0D01*
G01*
X127577001Y-18918500D01*
G75*
G02*
X127827000Y-19168499I0J-249999D01*
G01*
X127827000Y-19693501D01*
G75*
G02*
X127577001Y-19943500I-249999J0D01*
G01*
G37*
%TD*%
%TO.C,R2*%
G36*
G01*
X119449001Y-24087500D02*
X118548999Y-24087500D01*
G75*
G02*
X118299000Y-23837501I0J249999D01*
G01*
X118299000Y-23312499D01*
G75*
G02*
X118548999Y-23062500I249999J0D01*
G01*
X119449001Y-23062500D01*
G75*
G02*
X119699000Y-23312499I0J-249999D01*
G01*
X119699000Y-23837501D01*
G75*
G02*
X119449001Y-24087500I-249999J0D01*
G01*
G37*
G36*
G01*
X119449001Y-25912500D02*
X118548999Y-25912500D01*
G75*
G02*
X118299000Y-25662501I0J249999D01*
G01*
X118299000Y-25137499D01*
G75*
G02*
X118548999Y-24887500I249999J0D01*
G01*
X119449001Y-24887500D01*
G75*
G02*
X119699000Y-25137499I0J-249999D01*
G01*
X119699000Y-25662501D01*
G75*
G02*
X119449001Y-25912500I-249999J0D01*
G01*
G37*
%TD*%
%TO.C,R1*%
G36*
G01*
X122116001Y-24087500D02*
X121215999Y-24087500D01*
G75*
G02*
X120966000Y-23837501I0J249999D01*
G01*
X120966000Y-23312499D01*
G75*
G02*
X121215999Y-23062500I249999J0D01*
G01*
X122116001Y-23062500D01*
G75*
G02*
X122366000Y-23312499I0J-249999D01*
G01*
X122366000Y-23837501D01*
G75*
G02*
X122116001Y-24087500I-249999J0D01*
G01*
G37*
G36*
G01*
X122116001Y-25912500D02*
X121215999Y-25912500D01*
G75*
G02*
X120966000Y-25662501I0J249999D01*
G01*
X120966000Y-25137499D01*
G75*
G02*
X121215999Y-24887500I249999J0D01*
G01*
X122116001Y-24887500D01*
G75*
G02*
X122366000Y-25137499I0J-249999D01*
G01*
X122366000Y-25662501D01*
G75*
G02*
X122116001Y-25912500I-249999J0D01*
G01*
G37*
%TD*%
D16*
%TO.C,MX2*%
X148082000Y-47656000D03*
X137922000Y-47656000D03*
D17*
X144272000Y-52736000D03*
D18*
X141732000Y-52736000D03*
D19*
X140502000Y-43656000D03*
D20*
X143002000Y-47656000D03*
G36*
G01*
X138440688Y-45953350D02*
X138440683Y-45953345D01*
G75*
G02*
X138354655Y-44364683I751317J837345D01*
G01*
X139664657Y-42904683D01*
G75*
G02*
X141253319Y-42818655I837345J-751317D01*
G01*
X141253319Y-42818655D01*
G75*
G02*
X141339347Y-44407317I-751317J-837345D01*
G01*
X140029345Y-45867317D01*
G75*
G02*
X138440683Y-45953345I-837345J751317D01*
G01*
G37*
D19*
X145542000Y-42576000D03*
G36*
G01*
X145425483Y-44278395D02*
X145424597Y-44278334D01*
G75*
G02*
X144379666Y-43078597I77403J1122334D01*
G01*
X144419666Y-42498597D01*
G75*
G02*
X145619403Y-41453666I1122334J-77403D01*
G01*
X145619403Y-41453666D01*
G75*
G02*
X146664334Y-42653403I-77403J-1122334D01*
G01*
X146624334Y-43233403D01*
G75*
G02*
X145424597Y-44278334I-1122334J77403D01*
G01*
G37*
%TD*%
D16*
%TO.C,MX1*%
X128965000Y-47656000D03*
X118805000Y-47656000D03*
D17*
X125155000Y-52736000D03*
D18*
X122615000Y-52736000D03*
D19*
X121385000Y-43656000D03*
D20*
X123885000Y-47656000D03*
G36*
G01*
X119323688Y-45953350D02*
X119323683Y-45953345D01*
G75*
G02*
X119237655Y-44364683I751317J837345D01*
G01*
X120547657Y-42904683D01*
G75*
G02*
X122136319Y-42818655I837345J-751317D01*
G01*
X122136319Y-42818655D01*
G75*
G02*
X122222347Y-44407317I-751317J-837345D01*
G01*
X120912345Y-45867317D01*
G75*
G02*
X119323683Y-45953345I-837345J751317D01*
G01*
G37*
D19*
X126425000Y-42576000D03*
G36*
G01*
X126308483Y-44278395D02*
X126307597Y-44278334D01*
G75*
G02*
X125262666Y-43078597I77403J1122334D01*
G01*
X125302666Y-42498597D01*
G75*
G02*
X126502403Y-41453666I1122334J-77403D01*
G01*
X126502403Y-41453666D01*
G75*
G02*
X127547334Y-42653403I-77403J-1122334D01*
G01*
X127507334Y-43233403D01*
G75*
G02*
X126307597Y-44278334I-1122334J77403D01*
G01*
G37*
%TD*%
%TO.C,F1*%
G36*
G01*
X116957000Y-24882000D02*
X115707000Y-24882000D01*
G75*
G02*
X115457000Y-24632000I0J250000D01*
G01*
X115457000Y-23882000D01*
G75*
G02*
X115707000Y-23632000I250000J0D01*
G01*
X116957000Y-23632000D01*
G75*
G02*
X117207000Y-23882000I0J-250000D01*
G01*
X117207000Y-24632000D01*
G75*
G02*
X116957000Y-24882000I-250000J0D01*
G01*
G37*
G36*
G01*
X116957000Y-27682000D02*
X115707000Y-27682000D01*
G75*
G02*
X115457000Y-27432000I0J250000D01*
G01*
X115457000Y-26682000D01*
G75*
G02*
X115707000Y-26432000I250000J0D01*
G01*
X116957000Y-26432000D01*
G75*
G02*
X117207000Y-26682000I0J-250000D01*
G01*
X117207000Y-27432000D01*
G75*
G02*
X116957000Y-27682000I-250000J0D01*
G01*
G37*
%TD*%
D21*
%TO.C,D2*%
X151003000Y-43943000D03*
X151003000Y-47243000D03*
%TD*%
%TO.C,D1*%
X131953000Y-43943000D03*
X131953000Y-47243000D03*
%TD*%
%TO.C,C7*%
G36*
G01*
X129192000Y-26043000D02*
X130142000Y-26043000D01*
G75*
G02*
X130392000Y-26293000I0J-250000D01*
G01*
X130392000Y-26793000D01*
G75*
G02*
X130142000Y-27043000I-250000J0D01*
G01*
X129192000Y-27043000D01*
G75*
G02*
X128942000Y-26793000I0J250000D01*
G01*
X128942000Y-26293000D01*
G75*
G02*
X129192000Y-26043000I250000J0D01*
G01*
G37*
G36*
G01*
X129192000Y-27943000D02*
X130142000Y-27943000D01*
G75*
G02*
X130392000Y-28193000I0J-250000D01*
G01*
X130392000Y-28693000D01*
G75*
G02*
X130142000Y-28943000I-250000J0D01*
G01*
X129192000Y-28943000D01*
G75*
G02*
X128942000Y-28693000I0J250000D01*
G01*
X128942000Y-28193000D01*
G75*
G02*
X129192000Y-27943000I250000J0D01*
G01*
G37*
%TD*%
%TO.C,C6*%
G36*
G01*
X133744000Y-35654000D02*
X133744000Y-34704000D01*
G75*
G02*
X133994000Y-34454000I250000J0D01*
G01*
X134494000Y-34454000D01*
G75*
G02*
X134744000Y-34704000I0J-250000D01*
G01*
X134744000Y-35654000D01*
G75*
G02*
X134494000Y-35904000I-250000J0D01*
G01*
X133994000Y-35904000D01*
G75*
G02*
X133744000Y-35654000I0J250000D01*
G01*
G37*
G36*
G01*
X135644000Y-35654000D02*
X135644000Y-34704000D01*
G75*
G02*
X135894000Y-34454000I250000J0D01*
G01*
X136394000Y-34454000D01*
G75*
G02*
X136644000Y-34704000I0J-250000D01*
G01*
X136644000Y-35654000D01*
G75*
G02*
X136394000Y-35904000I-250000J0D01*
G01*
X135894000Y-35904000D01*
G75*
G02*
X135644000Y-35654000I0J250000D01*
G01*
G37*
%TD*%
%TO.C,C5*%
G36*
G01*
X134272000Y-14999000D02*
X135222000Y-14999000D01*
G75*
G02*
X135472000Y-15249000I0J-250000D01*
G01*
X135472000Y-15749000D01*
G75*
G02*
X135222000Y-15999000I-250000J0D01*
G01*
X134272000Y-15999000D01*
G75*
G02*
X134022000Y-15749000I0J250000D01*
G01*
X134022000Y-15249000D01*
G75*
G02*
X134272000Y-14999000I250000J0D01*
G01*
G37*
G36*
G01*
X134272000Y-16899000D02*
X135222000Y-16899000D01*
G75*
G02*
X135472000Y-17149000I0J-250000D01*
G01*
X135472000Y-17649000D01*
G75*
G02*
X135222000Y-17899000I-250000J0D01*
G01*
X134272000Y-17899000D01*
G75*
G02*
X134022000Y-17649000I0J250000D01*
G01*
X134022000Y-17149000D01*
G75*
G02*
X134272000Y-16899000I250000J0D01*
G01*
G37*
%TD*%
%TO.C,C4*%
G36*
G01*
X142334000Y-17894000D02*
X141384000Y-17894000D01*
G75*
G02*
X141134000Y-17644000I0J250000D01*
G01*
X141134000Y-17144000D01*
G75*
G02*
X141384000Y-16894000I250000J0D01*
G01*
X142334000Y-16894000D01*
G75*
G02*
X142584000Y-17144000I0J-250000D01*
G01*
X142584000Y-17644000D01*
G75*
G02*
X142334000Y-17894000I-250000J0D01*
G01*
G37*
G36*
G01*
X142334000Y-15994000D02*
X141384000Y-15994000D01*
G75*
G02*
X141134000Y-15744000I0J250000D01*
G01*
X141134000Y-15244000D01*
G75*
G02*
X141384000Y-14994000I250000J0D01*
G01*
X142334000Y-14994000D01*
G75*
G02*
X142584000Y-15244000I0J-250000D01*
G01*
X142584000Y-15744000D01*
G75*
G02*
X142334000Y-15994000I-250000J0D01*
G01*
G37*
%TD*%
%TO.C,C3*%
G36*
G01*
X147795000Y-24818000D02*
X146845000Y-24818000D01*
G75*
G02*
X146595000Y-24568000I0J250000D01*
G01*
X146595000Y-24068000D01*
G75*
G02*
X146845000Y-23818000I250000J0D01*
G01*
X147795000Y-23818000D01*
G75*
G02*
X148045000Y-24068000I0J-250000D01*
G01*
X148045000Y-24568000D01*
G75*
G02*
X147795000Y-24818000I-250000J0D01*
G01*
G37*
G36*
G01*
X147795000Y-22918000D02*
X146845000Y-22918000D01*
G75*
G02*
X146595000Y-22668000I0J250000D01*
G01*
X146595000Y-22168000D01*
G75*
G02*
X146845000Y-21918000I250000J0D01*
G01*
X147795000Y-21918000D01*
G75*
G02*
X148045000Y-22168000I0J-250000D01*
G01*
X148045000Y-22668000D01*
G75*
G02*
X147795000Y-22918000I-250000J0D01*
G01*
G37*
%TD*%
%TO.C,C2*%
G36*
G01*
X144071000Y-34704000D02*
X144071000Y-35654000D01*
G75*
G02*
X143821000Y-35904000I-250000J0D01*
G01*
X143321000Y-35904000D01*
G75*
G02*
X143071000Y-35654000I0J250000D01*
G01*
X143071000Y-34704000D01*
G75*
G02*
X143321000Y-34454000I250000J0D01*
G01*
X143821000Y-34454000D01*
G75*
G02*
X144071000Y-34704000I0J-250000D01*
G01*
G37*
G36*
G01*
X142171000Y-34704000D02*
X142171000Y-35654000D01*
G75*
G02*
X141921000Y-35904000I-250000J0D01*
G01*
X141421000Y-35904000D01*
G75*
G02*
X141171000Y-35654000I0J250000D01*
G01*
X141171000Y-34704000D01*
G75*
G02*
X141421000Y-34454000I250000J0D01*
G01*
X141921000Y-34454000D01*
G75*
G02*
X142171000Y-34704000I0J-250000D01*
G01*
G37*
%TD*%
%TO.C,C1*%
G36*
G01*
X131031000Y-21770000D02*
X130081000Y-21770000D01*
G75*
G02*
X129831000Y-21520000I0J250000D01*
G01*
X129831000Y-21020000D01*
G75*
G02*
X130081000Y-20770000I250000J0D01*
G01*
X131031000Y-20770000D01*
G75*
G02*
X131281000Y-21020000I0J-250000D01*
G01*
X131281000Y-21520000D01*
G75*
G02*
X131031000Y-21770000I-250000J0D01*
G01*
G37*
G36*
G01*
X131031000Y-19870000D02*
X130081000Y-19870000D01*
G75*
G02*
X129831000Y-19620000I0J250000D01*
G01*
X129831000Y-19120000D01*
G75*
G02*
X130081000Y-18870000I250000J0D01*
G01*
X131031000Y-18870000D01*
G75*
G02*
X131281000Y-19120000I0J-250000D01*
G01*
X131281000Y-19620000D01*
G75*
G02*
X131031000Y-19870000I-250000J0D01*
G01*
G37*
%TD*%
D22*
%TO.C,U1*%
X132984000Y-30543000D03*
X132984000Y-29743000D03*
X132984000Y-28943000D03*
X132984000Y-28143000D03*
X132984000Y-27343000D03*
X132984000Y-26543000D03*
X132984000Y-25743000D03*
X132984000Y-24943000D03*
X132984000Y-24143000D03*
X132984000Y-23343000D03*
X132984000Y-22543000D03*
D23*
X134684000Y-20843000D03*
X135484000Y-20843000D03*
X136284000Y-20843000D03*
X137084000Y-20843000D03*
X137884000Y-20843000D03*
X138684000Y-20843000D03*
X139484000Y-20843000D03*
X140284000Y-20843000D03*
X141084000Y-20843000D03*
X141884000Y-20843000D03*
X142684000Y-20843000D03*
D22*
X144384000Y-22543000D03*
X144384000Y-23343000D03*
X144384000Y-24143000D03*
X144384000Y-24943000D03*
X144384000Y-25743000D03*
X144384000Y-26543000D03*
X144384000Y-27343000D03*
X144384000Y-28143000D03*
X144384000Y-28943000D03*
X144384000Y-29743000D03*
X144384000Y-30543000D03*
D23*
X142684000Y-32243000D03*
X141884000Y-32243000D03*
X141084000Y-32243000D03*
X140284000Y-32243000D03*
X139484000Y-32243000D03*
X138684000Y-32243000D03*
X137884000Y-32243000D03*
X137084000Y-32243000D03*
X136284000Y-32243000D03*
X135484000Y-32243000D03*
X134684000Y-32243000D03*
%TD*%
M02*
