M48
; DRILL file {KiCad (5.1.8)-1} date 12/12/20 02:16:46
; FORMAT={-:-/ absolute / inch / decimal}
; #@! TF.CreationDate,2020-12-12T02:16:46-05:00
; #@! TF.GenerationSoftware,Kicad,Pcbnew,(5.1.8)-1
; #@! TF.FileFunction,Plated,1,2,PTH
FMAT,2
INCH
T1C0.0157
T2C0.0276
T3C0.0409
T4C0.0579
%
G90
G05
T1
X4.9Y-0.8878
X4.9Y-0.95
X4.95Y-0.8878
X4.95Y-1.25
X5.0Y-1.1
X5.0Y-1.2
X5.075Y-0.81
X5.075Y-0.93
X5.16Y-0.965
X5.16Y-1.22
X5.175Y-0.9
X5.295Y-0.7497
X5.7498Y-1.0502
X5.75Y-1.4
X5.755Y-0.925
X5.825Y-1.315
T3
X5.58Y-2.0762
X5.68Y-2.0762
X4.8274Y-2.0762
X4.9274Y-2.0762
T4
X5.48Y-1.7762
X5.5316Y-1.7187
X5.7284Y-1.6991
X5.73Y-1.6762
X4.7274Y-1.7762
X4.7789Y-1.7187
X4.9758Y-1.6991
X4.9774Y-1.6762
T2
G00X4.5863Y-0.5964
M15
G01X4.5863Y-0.6436
M16
G05
G00X4.5863Y-0.7735
M15
G01X4.5863Y-0.8208
M16
G05
G00X4.8737Y-0.5964
M15
G01X4.8737Y-0.6436
M16
G05
G00X4.8737Y-0.7735
M15
G01X4.8737Y-0.8208
M16
G05
T0
M30
